<svg width="26" height="25" viewBox="0 0 26 25" fill="none" xmlns="http://www.w3.org/2000/svg">
<path d="M25.8189 15.8774C25.4982 15.3779 22.5765 10.5148 21.8995 9.46332C21.2225 8.43813 19.6548 7.83357 18.1584 8.17521C17.3746 8.35931 16.6976 8.85863 16.377 9.27927C16.0919 9.6999 14.3818 12.3022 14.3818 12.3022L12.6003 13.0644C13.3487 13.5375 13.6693 14.2737 13.4555 14.9833L16.0564 13.8793C16.2701 13.7742 16.4838 13.6427 16.5907 13.4586L17.5527 12.0128C17.6596 12.9329 17.5883 14.6153 16.3414 16.5604C15.9139 17.2438 17.1253 17.5594 18.7999 17.6382L19.3342 23.9997C19.3698 24.5254 19.9399 24.946 20.6882 24.9986C21.472 25.0248 22.149 24.6044 22.1846 23.9997L23.0398 17.3753C24.8925 17.0605 26.2465 16.5346 25.8188 15.8775L25.8189 15.8774Z" fill="#73207C"/>
<path d="M19.0849 5.75678C19.0849 7.00532 17.713 8.01746 16.0208 8.01746C14.3285 8.01746 12.9567 7.00532 12.9567 5.75678C12.9567 4.50824 14.3285 3.49609 16.0208 3.49609C17.713 3.49609 19.0849 4.50824 19.0849 5.75678Z" fill="#73207C"/>
<path d="M12.6362 0.552121C12.6362 0.236733 12.2798 0 11.8879 0C11.4962 0 11.1398 0.262945 11.1398 0.552121V1.62994C11.1398 1.94532 11.4962 2.18206 11.8881 2.18206C12.28 2.18206 12.6364 1.91911 12.6364 1.62994L12.6362 0.552121Z" fill="#73207C"/>
<path d="M14.275 2.62874C14.3819 2.68137 14.4888 2.68137 14.6314 2.68137C14.9165 2.68137 15.1658 2.5763 15.3084 2.36598L15.9496 1.41965C16.1278 1.13048 15.9852 0.815095 15.629 0.65742C15.2371 0.525947 14.8096 0.631199 14.5959 0.893961L13.9547 1.84029C13.7763 2.12927 13.9187 2.47109 14.2751 2.62876L14.275 2.62874Z" fill="#73207C"/>
<path d="M8.46743 2.36571C8.60984 2.54981 8.85936 2.6811 9.14445 2.6811C9.25132 2.6811 9.39397 2.65487 9.50084 2.62847C9.89277 2.497 10.0352 2.1554 9.82145 1.86624L9.18025 0.919908C9.00205 0.630741 8.53905 0.525678 8.14713 0.683367C7.7552 0.81484 7.6128 1.15644 7.82653 1.4456L8.46743 2.36571Z" fill="#73207C"/>
<path d="M11.7454 13.6692L9.50067 12.3811C9.50067 12.3811 7.93292 9.96271 7.541 9.3844C7.14907 8.80608 6.54339 8.3592 5.65266 8.1751C4.15624 7.83331 2.58856 8.46427 1.98287 9.51569L0.343803 12.4336C0.0587382 12.9592 -0.119451 14.0633 0.0942789 14.6154C0.308009 15.1674 0.521751 15.7456 0.593073 16.3239L1.59069 23.9997C1.62623 24.5781 2.3032 25.0249 3.08711 24.9723C3.79963 24.9461 4.36975 24.4992 4.40532 23.9997L5.11784 15.5879C5.11784 15.4038 5.18917 15.2199 5.29603 15.0358L6.43629 13.0116L6.86376 13.6688C6.97063 13.8265 7.11329 13.958 7.29124 14.063L9.82103 15.5089C10.1061 15.6666 10.4267 15.7454 10.7473 15.7454C11.2106 15.7454 11.6736 15.5877 11.9586 15.2986C12.5293 14.7732 12.3869 14.0636 11.7454 13.6692L11.7454 13.6692Z" fill="#73207C"/>
<path d="M10.8189 5.75678C10.8189 7.00532 9.44709 8.01746 7.75483 8.01746C6.06258 8.01746 4.69073 7.00532 4.69073 5.75678C4.69073 4.50824 6.06258 3.49609 7.75483 3.49609C9.44709 3.49609 10.8189 4.50824 10.8189 5.75678Z" fill="#73207C"/>
</svg>
