<svg width="28" height="23" viewBox="0 0 28 23" fill="none" xmlns="http://www.w3.org/2000/svg">
<path d="M19.7175 17.3503C17.8021 17.3503 16.041 16.6088 14.7434 15.2496C13.7547 14.23 13.1678 12.9324 13.2295 11.8821C13.3222 10.1828 14.3417 9.99746 14.7743 9.99746C14.9288 9.99746 15.0523 10.0283 15.2068 10.0593C16.01 10.2447 16.6589 10.8317 16.9679 11.6659C17.0298 11.8513 17.7403 12.3456 18.8525 12.3456C19.285 12.3456 19.7484 12.2529 20.1809 12.0984C19.8102 11.0789 19.4085 10.0903 18.9142 9.16344C19.4085 9.16344 20.3971 8.9781 21.3548 7.526C21.3548 7.526 20.4278 5.88856 17.9562 7.46415C17.4618 7.86585 16.7821 7.98934 16.1334 7.98934C15.7009 7.98934 15.2684 7.89667 14.8977 7.6803C14.0945 7.24778 13.1677 6.96977 12.5498 6.81524C12.3026 6.75339 12.0554 6.6299 11.8701 6.44456C11.3449 5.95019 11.283 5.17781 11.6537 4.6218C11.6845 4.55995 11.7155 4.52914 11.7464 4.46729C8.9967 5.2705 7.76101 7.03158 7.76101 7.03158L3.55927 11.2331C2.04536 12.7778 1.92183 13.4268 1.79814 14.817C1.70547 15.7747 2.87958 16.2383 3.6209 16.4236C3.96075 16.5162 4.30059 16.5162 4.60965 16.3928C5.5055 16.1148 7.60647 15.5895 9.42923 15.7749C11.0358 15.9603 9.76909 19.7603 11.0048 21.0581C12.7967 22.9119 18.914 24.0241 20.9222 20.1622C21.2928 19.4207 21.4165 18.3703 21.3547 17.1654C20.7987 17.2887 20.2427 17.3503 19.7175 17.3503L19.7175 17.3503ZM10.2636 10.6152H9.98563C9.55311 10.6152 9.21326 10.2753 9.21326 9.84282C9.21326 9.4103 9.55311 9.07045 9.98563 9.07045H10.2636C10.6962 9.07045 11.036 9.4103 11.036 9.84282C11.005 10.2753 10.6651 10.6152 10.2636 10.6152Z" fill="#65096F"/>
<path d="M17.308 0.326888C13.5696 1.37727 12.9828 3.60171 12.1485 4.89931C11.8394 5.39368 12.0866 6.07338 12.6737 6.22769C13.3842 6.41303 14.3111 6.69103 15.1761 7.1546C16.0103 7.58712 16.9989 7.4326 17.6478 6.75289C18.2038 6.19689 19.0072 5.73336 20.0268 6.01136C22.2821 6.59842 24.0432 10.4603 21.3551 12.1595C19.0689 13.6116 16.7517 12.6539 16.4429 11.8504C16.2265 11.2326 15.7323 10.7382 15.0834 10.6147C14.4656 10.4913 13.8477 10.6766 13.7858 11.9123C13.6621 14.4461 18.173 19.4204 24.8154 15.0639C31.427 10.6768 26.2983 -2.20644 17.3079 0.326955L17.308 0.326888Z" fill="#65096F"/>
<path d="M12.087 3.78729L12.5504 2.14985C12.5504 2.14985 11.9015 -0.38366 9.30633 0.574253C6.7112 1.53195 8.10142 5.88821 8.10142 5.88821C8.10142 5.88821 9.5535 3.91093 12.087 3.78723L12.087 3.78729Z" fill="#65096F"/>
<path d="M3.65229 10.1204C3.65229 10.1204 2.32391 11.0474 1.76769 12.1596C1.76769 12.1596 -0.981972 8.63754 0.377468 7.12362C1.73691 5.60987 2.23128 8.45222 3.65229 10.1204Z" fill="#65096F"/>
</svg>
