<svg width="27" height="38" viewBox="0 0 27 38" fill="none" xmlns="http://www.w3.org/2000/svg">
<path d="M13.8639 0.67071C13.4516 0.311017 12.8371 0.311017 12.4248 0.67071L0.374184 11.2C0.136169 11.4079 0 11.7081 0 12.0235V25.6013C0 25.9118 0.132361 26.2082 0.363511 26.4157L12.1124 36.945C12.3195 37.1307 12.5812 37.2246 12.8425 37.2246C13.0946 37.2246 13.3471 37.1376 13.5516 36.9633L25.9039 26.434C26.1477 26.2258 26.2884 25.9217 26.2884 25.6017V12.0239C26.2884 11.7084 26.1519 11.4083 25.9142 11.2004L13.8639 0.67071ZM2.18729 13.3141L6.35253 14.8894V22.7642L2.18729 24.3169V13.3141ZM7.00364 13.3812L2.95431 11.8493L12.3242 3.66296V8.73182L7.00364 13.3812ZM19.2847 13.3812L13.9641 8.73231V3.66345L23.334 11.8498L19.2847 13.3812ZM7.99281 14.6952L13.1441 10.1935L18.2954 14.6944V22.8896L12.9713 27.4282L7.9929 22.9673L7.99281 14.6952ZM13.7772 28.898L19.2771 24.2094L23.3214 25.7607L13.7673 33.904L13.7772 28.898ZM19.9354 22.705V14.8894L24.1007 13.3141V24.3033L19.9354 22.705ZM2.93996 25.787L6.99427 24.2757L12.1368 28.8841L12.1268 34.0198L2.93996 25.787Z" fill="#CB0000"/>
</svg>
