<svg width="35" height="32" viewBox="0 0 35 32" fill="none" xmlns="http://www.w3.org/2000/svg">
<path d="M15.3923 0C11.1589 0 7.06513 1.81151 4.1683 4.9769C1.22491 8.18042 -0.242137 12.3707 0.0326421 16.7803C0.521656 24.6986 6.72981 31.0198 14.4749 31.4774C22.4667 31.9542 29.4061 26.2145 30.6077 18.1342C30.617 18.0722 30.5984 18.0055 30.5564 17.9578C30.5145 17.9102 30.454 17.8816 30.3934 17.8816H28.7913C27.7807 17.8816 26.9564 17.0378 26.9564 16.0033C26.9564 14.9688 27.7807 14.125 28.7913 14.125H30.4586C30.5192 14.125 30.5797 14.0964 30.6216 14.0488C30.6636 14.0011 30.6822 13.9391 30.6729 13.8772C29.7507 5.96846 23.184 0 15.3923 0Z" fill="#066AFF"/>
<path d="M31.9164 15.3836H28.8379C28.5166 15.3836 28.2604 15.6505 28.2604 15.9747C28.2604 16.3036 28.5212 16.5658 28.8379 16.5658H31.9164C32.2378 16.5658 32.4939 16.2989 32.4939 15.9747C32.4939 15.6505 32.2331 15.3836 31.9164 15.3836Z" fill="#066AFF"/>
<path d="M31.4088 14.2061L34.408 15.9747L31.4088 17.7481V14.2061Z" fill="#066AFF"/>
</svg>
