<svg width="38" height="34" viewBox="0 0 38 34" fill="none" xmlns="http://www.w3.org/2000/svg">
<path fill-rule="evenodd" clip-rule="evenodd" d="M3.40812 6.72403L9.13059 6.72403L9.13059 3.2906C9.13059 1.43066 10.5612 0 12.2779 0L25.5824 0C27.2991 0 28.873 1.43058 28.873 3.2906L28.873 6.72403L34.4525 6.72403C36.1693 6.72403 37.5999 8.1546 37.5999 9.87136L37.5999 29.8999C37.5999 31.6167 36.1693 33.0473 34.4525 33.0473L3.4071 33.0473C1.69034 33.0473 0.259766 31.6167 0.259766 29.8999L0.259766 9.87136C0.259766 8.1546 1.69034 6.72403 3.4071 6.72403H3.40812ZM18.2864 11.1591L18.2864 12.8759C16.2836 13.162 14.9958 14.5926 14.9958 16.1665C14.9958 18.3126 16.4264 19.4571 18.8586 20.3154C20.1463 20.7448 20.8615 21.0309 20.8615 22.1754C20.8615 25.3227 16.8558 23.6059 15.4252 22.7476L14.4236 24.7505C14.9959 25.0366 16.4265 25.8949 18.2864 26.0382L18.2864 28.0411L20.0032 28.0411L20.0032 25.8949C22.2921 25.4656 23.4366 23.7488 23.4366 22.0322C23.4366 20.0293 22.1489 19.1709 20.0032 18.3125C18.2864 17.5971 17.571 17.1681 17.571 15.8803C17.571 13.7342 21.2906 15.0219 22.435 15.5942L23.2934 13.7343C22.8641 13.591 21.5767 12.8759 20.0028 12.7327L20.0028 11.1589L18.2861 11.1589L18.2864 11.1591ZM11.4191 6.72403L26.4412 6.72403L26.4412 3.2906C26.4412 2.86124 26.0118 2.43222 25.5828 2.43222L12.2784 2.43222C11.849 2.43222 11.42 2.86157 11.42 3.2906L11.42 6.72403H11.4191Z" fill="#65096F"/>
</svg>
