<svg width="21" height="24" viewBox="0 0 21 24" fill="none" xmlns="http://www.w3.org/2000/svg">
<path d="M9.41957 7.11849C9.41957 6.48908 8.97314 5.9568 8.38379 5.8252V8.40604C8.97317 8.28016 9.41957 7.75363 9.41957 7.11849Z" fill="#65096F"/>
<path d="M7.80531 2.60938C7.21019 2.741 6.76953 3.26752 6.76953 3.90267C6.76953 4.53208 7.21596 5.06436 7.80531 5.19596V2.60938Z" fill="#65096F"/>
<path d="M8.09179 11.0215C11.1304 11.0215 13.6025 8.54947 13.6025 5.51074C13.6025 2.47216 11.1305 0 8.09179 0C5.05321 0 2.58105 2.47201 2.58105 5.51074C2.58105 8.54932 5.05326 11.0215 8.09179 11.0215ZM6.19764 3.90289C6.19764 2.95294 6.89581 2.17467 7.80573 2.03728L7.80554 1.21894C7.80554 1.05876 7.93142 0.932877 8.0916 0.932877C8.25178 0.932877 8.37766 1.05876 8.37766 1.21894V2.00873H9.6995C9.85968 2.00873 9.98556 2.13462 9.98556 2.29479C9.98556 2.45497 9.85968 2.58085 9.6995 2.58085H8.37766V5.25906C9.28758 5.39644 9.98575 6.18046 9.98575 7.12467C9.98575 8.07462 9.28758 8.85289 8.37766 8.99028V9.80862C8.37766 9.9688 8.25178 10.0947 8.0916 10.0947C7.93142 10.0947 7.80554 9.9688 7.80554 9.80862V9.01882H6.4837C6.32353 9.01882 6.19764 8.89294 6.19764 8.73277C6.19764 8.57259 6.32353 8.44671 6.4837 8.44671H7.80554V5.76849C6.89582 5.63092 6.19764 4.8471 6.19764 3.90289H6.19764Z" fill="#65096F"/>
<path d="M0 17.4189H3.71954V23.9999H0V17.4189Z" fill="#65096F"/>
<path d="M11.4453 11.6968H15.1649V23.9999H11.4453V11.6968Z" fill="#65096F"/>
<path d="M17.168 8.83545H20.8875V24.0002H17.168V8.83545Z" fill="#65096F"/>
<path d="M5.72266 14.5581H9.4422V24.0002H5.72266V14.5581Z" fill="#65096F"/>
</svg>
