<svg width="41" height="34" viewBox="0 0 41 34" fill="none" xmlns="http://www.w3.org/2000/svg">
<path fill-rule="evenodd" clip-rule="evenodd" d="M36.5775 11.5472L33.7425 3.8721C32.7054 1.867 31.115 0.622195 29.2481 0L11.4776 0C9.61069 0.622373 8.08957 1.86694 6.98317 3.8721L4.14815 11.5472L0.483528 11.5472C0.206982 11.5472 -0.000484467 11.7547 -0.000484467 12.0312V13.5524C-0.000484467 13.8289 0.206982 14.1055 0.483528 14.1055L2.62703 14.1055C2.00465 14.866 1.38246 15.765 0.760086 16.9405C0.760086 21.5731 0.691006 26.206 0.691006 30.9079C0.691006 32.0834 1.65902 33.1205 2.90358 33.1205H4.42471C5.66928 33.1205 6.63729 32.0834 6.63729 30.9079V28.0729L34.0878 28.0729L34.0878 30.9079C34.0878 32.0834 35.0558 33.1205 36.3004 33.1205H37.8215C39.0661 33.1205 40.0341 32.0834 40.0341 30.9079C40.0341 26.206 39.965 21.5732 39.965 16.9405C39.3426 15.765 38.7204 14.866 38.0981 14.1055L40.2416 14.1055C40.5181 14.1055 40.7256 13.8289 40.7256 13.5524V12.0312C40.7256 11.7547 40.5181 11.5472 40.2416 11.5472L36.5775 11.5472ZM28.9024 3.04231C30.0779 3.24978 30.8384 4.01032 31.2534 4.97833C32.083 7.26023 32.982 9.88776 33.7425 12.1697L6.9834 12.1697C7.74393 9.88776 8.712 7.26023 9.47254 4.97833C9.95655 4.01032 10.648 3.24973 11.8235 3.04231L28.9024 3.04231ZM7.74364 17.1482C9.1266 17.1482 10.2328 18.2546 10.2328 19.6373C10.2328 21.0203 9.12637 22.1264 7.74364 22.1264C6.42975 22.1264 5.32358 21.02 5.32358 19.6373C5.32358 18.2543 6.42999 17.1482 7.74364 17.1482ZM32.9816 17.1482C31.5986 17.1482 30.4924 18.2546 30.4924 19.6373C30.4924 21.0203 31.5989 22.1264 32.9816 22.1264C34.2955 22.1264 35.4016 21.02 35.4016 19.6373C35.4016 18.2543 34.2952 17.1482 32.9816 17.1482Z" fill="#65096F"/>
</svg>
