<svg width="39" height="26" viewBox="0 0 39 26" fill="none" xmlns="http://www.w3.org/2000/svg">
<path d="M3.01571 14.4599C2.92877 14.4599 2.84214 14.4166 2.79852 14.3729L0.192938 12.6794C0.0193742 12.5492 -0.0675584 12.2887 0.0626898 12.1148L6.53292 0.607498C6.57623 0.520565 6.70648 0.433935 6.79342 0.390317C6.92366 0.347002 7.05391 0.390317 7.14085 0.433632L9.74643 2.12716C9.92 2.25741 10.0069 2.51791 9.87668 2.69176L3.40668 14.2425C3.36337 14.3294 3.23312 14.4161 3.14619 14.4597H3.01564L3.01571 14.4599Z" fill="white"/>
<path d="M21.1667 24.4037C20.776 24.4037 20.3416 24.3604 19.9509 24.2301C19.343 24.0565 18.8653 23.7957 18.4745 23.5352C17.9099 23.1445 18.1271 22.5366 18.214 22.1892C18.2574 22.1023 18.2574 21.972 18.301 21.9287C18.3443 21.6682 18.1274 21.1905 17.7364 20.8431C17.5628 20.7129 17.2154 20.4957 16.868 20.5826L16.781 20.6259C16.7377 20.6259 16.6075 20.6692 16.6075 20.6692C16.4772 20.7995 16.2601 20.7995 16.1298 20.7125C15.9562 20.6256 15.8693 20.452 15.9126 20.2782C15.9559 20.1479 15.9996 19.9741 16.0429 19.8874C16.0862 19.8005 16.1298 19.6703 16.1298 19.5833C16.1731 19.4098 16.1298 19.1926 16.0865 19.0187C15.9996 18.6713 15.7391 18.3675 15.3916 18.2372C15.0442 18.107 14.4363 18.107 14.2627 18.3242C14.1324 18.4977 13.8283 18.5414 13.6548 18.4111C13.4812 18.2809 13.4376 17.9768 13.5678 17.8032C13.785 17.4991 13.872 17.2386 13.8283 16.8911C13.785 16.4135 13.5678 15.9791 13.2204 15.7186C12.9163 15.4581 12.4823 15.3712 12.0915 15.4145C11.7874 15.4578 11.4402 15.7186 11.1794 15.8922C10.9622 16.0657 10.7887 16.2829 10.5715 16.5001L10.441 16.5437C10.2238 16.8042 10.0066 16.7609 9.87635 16.7609C9.52892 16.674 9.39868 16.3265 9.31175 16.066C9.31175 16.0227 9.26844 15.9791 9.26844 15.9358C9.1815 15.8055 9.09487 15.6753 8.96432 15.5451C8.83407 15.4581 8.70383 15.3715 8.57358 15.3279C8.48664 15.2846 8.40001 15.2846 8.31308 15.2846H8.26977C8.0962 15.2846 7.92234 15.3279 7.79209 15.1976C7.61853 15.0674 7.53159 15.0241 7.40134 14.9804C7.31441 14.9371 7.22778 14.8502 7.05391 14.7633L6.96698 14.7199C5.70785 13.9818 4.57859 13.1567 5.01299 12.4185C5.0563 12.3752 9.35537 4.64562 9.35537 4.64562C9.4423 4.51537 9.52893 4.42844 9.7028 4.42844C9.83305 4.42844 9.9633 4.47175 10.0935 4.55868C11.3094 5.90475 13.4806 5.86148 13.5239 5.86148C13.6974 5.86148 13.828 5.94841 13.9146 6.07866C14.0015 6.20891 13.9579 6.38277 13.8713 6.55634C12.395 8.55399 12.0475 9.7262 12.0475 9.7262C12.0042 10.0303 11.9606 10.4644 12.2211 10.7684C12.4382 11.0289 12.8723 11.1592 13.4369 11.0726C14.6961 10.9423 15.9122 10.2911 16.9542 9.16184C17.3885 8.72747 17.9095 8.20651 18.6044 7.94597C19.5597 7.59854 20.602 8.2934 21.3835 8.81437C21.5137 8.9013 21.644 8.98793 21.7309 9.03155C23.7718 10.2907 25.7692 11.6804 27.6799 13.0698C28.6352 13.7647 29.547 14.5028 30.459 15.2843L30.546 15.3713C31.0236 15.762 31.892 16.5002 31.458 17.4122C31.1539 18.1071 30.2855 18.3243 29.6776 18.1937C29.504 18.1504 29.3735 18.0634 29.2432 18.0201L27.8535 17.195C27.3758 16.8909 26.8982 16.5871 26.4205 16.2829C25.9428 15.9788 25.4652 15.675 24.9875 15.4145C24.8573 15.3276 24.7703 15.2843 24.6401 15.1973C24.3796 15.0671 24.1191 14.8932 23.8586 14.7197C23.5545 14.5025 23.3376 14.3722 23.1638 14.4592C23.0768 14.5025 23.0335 14.5461 23.0335 14.6327C22.9902 14.763 23.0335 14.9368 23.0768 15.0235C23.3809 15.4142 23.8583 15.6314 24.336 15.8919L24.5531 16.0221C25.769 16.63 26.8979 17.3249 27.8533 17.8892C28.2876 18.1497 28.852 18.4538 28.8086 19.2353C28.8086 19.7563 28.4612 20.2339 28.0271 20.4078C27.202 20.7119 26.2033 20.2342 25.8126 20.017L22.0785 17.8462C21.9049 17.7592 21.4705 17.4987 21.3836 17.629V17.6723C21.3836 17.7592 21.4705 17.9328 21.5572 18.0197C21.7743 18.1933 22.0348 18.3671 22.3386 18.4974L22.5122 18.5843C23.2071 18.9751 23.9452 19.3658 24.8137 19.9304L24.9439 20.0173C25.5085 20.3214 26.6374 21.016 26.1598 22.0582C26.0295 22.3187 25.8124 22.4926 25.5085 22.6228C25.0742 22.7964 24.4663 22.7531 24.0756 22.5795C23.4676 22.2754 22.903 21.9716 22.3388 21.6675C21.9913 21.4939 21.6006 21.2767 21.2098 21.1029L21.1665 21.0596C20.7758 20.886 20.4283 20.6688 20.0376 20.6252C19.9073 20.6252 19.7771 20.6685 19.7334 20.7121C19.6901 20.7554 19.7334 20.8424 19.7768 20.8857C19.9939 21.1898 20.428 21.4067 20.8624 21.5369L21.1665 21.6672C21.6442 21.8407 22.1218 22.0579 22.5995 22.2318C22.9902 22.362 23.4246 22.5792 23.5548 22.9266C23.5981 23.1438 23.5548 23.3174 23.4245 23.5345C23.251 23.7517 22.9902 23.9689 22.6431 24.0991C22.1654 24.3163 21.6444 24.4033 21.1667 24.4033L21.1667 24.4037Z" fill="white"/>
<path d="M31.1542 15.1549C31.0672 15.1549 30.937 15.1115 30.8937 15.0679C27.3328 12.0283 24.076 9.72686 20.993 8.03333C19.6033 7.25186 18.5177 7.25186 17.4758 8.07665C17.1284 8.33714 16.8679 8.64125 16.5205 8.9887C15.9559 9.59662 15.3479 10.2478 14.4796 10.552C14.1321 10.6822 13.3506 10.9427 12.786 10.6822C12.5688 10.5953 12.4386 10.4217 12.3953 10.2045C12.3083 9.8571 12.4386 9.20586 13.8283 7.25187C14.6097 6.20962 15.4349 5.21095 15.6087 5.03733C16.26 4.34248 17.2589 4.2122 18.084 4.12527H18.171C19.6473 3.90809 21.2975 3.95171 23.1646 4.16859C23.7725 4.25552 24.3804 4.38577 24.945 4.51602C25.3794 4.60295 25.8571 4.7332 26.2911 4.82013C26.7687 4.90706 27.2464 4.90706 27.7241 4.82013C27.8543 4.82013 27.9412 4.77682 28.0715 4.7332C28.3756 4.64627 28.7663 4.55963 29.2004 4.7332C29.8953 5.03731 30.4163 5.90572 30.7204 6.51365L30.7637 6.6439C31.2414 7.5123 31.7191 8.33743 32.1967 9.20583C32.5008 9.72682 32.8046 10.2914 33.0651 10.8124C33.0651 10.8557 33.1084 10.8994 33.1954 10.986C34.1074 12.506 34.2376 12.7228 33.9768 12.9836C33.8033 13.1572 32.3267 14.7641 31.328 15.1548H31.1541L31.1542 15.1549Z" fill="white"/>
<path d="M35.8007 14.4593H35.6705C35.5402 14.416 35.4533 14.3724 35.41 14.2422L28.8964 2.60458C28.7661 2.3874 28.8531 2.1269 29.0699 2.03998L31.7188 0.476718C31.8057 0.433404 31.936 0.389786 32.0662 0.433404C32.1965 0.476719 32.2834 0.520337 32.3267 0.650585L38.8837 12.2013C39.0139 12.4185 38.927 12.679 38.7101 12.8092L36.0612 14.3722C35.9746 14.4158 35.8877 14.4591 35.8007 14.4591L35.8007 14.4593Z" fill="white"/>
<path d="M9.96346 21.4077C9.7899 21.4077 9.61603 21.3644 9.48578 21.2775C9.09504 21.1039 8.74762 20.6262 8.92118 19.8878C9.09474 18.9757 9.61603 18.2376 10.137 17.543C10.224 17.4561 10.2673 17.3695 10.3542 17.2389C10.745 16.6743 11.2226 16.0664 11.8742 15.8492C12.1347 15.7623 12.4388 15.8059 12.6993 15.9361C13.0035 16.1097 13.177 16.4138 13.2639 16.8045C13.3942 17.6297 12.9598 18.3678 12.4388 19.0191C11.9611 19.627 11.4835 20.2782 10.9625 20.8429C10.7017 21.2339 10.311 21.4078 9.96351 21.4078L9.96346 21.4077Z" fill="white"/>
<path d="M13.0032 23.2745C12.8296 23.2745 12.6557 23.2312 12.4822 23.101C12.1347 22.8838 11.9176 22.4061 11.9612 21.972C12.0045 21.1906 12.5691 20.452 13.0468 19.8442L13.177 19.6706C13.5245 19.2363 13.9152 18.7586 14.4362 18.7153C14.6967 18.672 15.0008 18.8022 15.2176 19.0194C15.4781 19.2799 15.6084 19.584 15.5651 19.9315C15.5217 20.6696 15.0874 21.2775 14.6967 21.7985C14.6533 21.8855 14.5664 21.9721 14.5231 22.059C14.219 22.4934 13.8282 22.9711 13.3506 23.2316C13.2636 23.2746 13.1334 23.2746 13.0031 23.2746L13.0032 23.2745Z" fill="white"/>
<path d="M15.6523 25.0987C15.3918 25.0987 15.218 25.0118 15.0877 24.9251C14.7836 24.6646 14.6101 24.187 14.6534 23.6223C14.6534 23.3182 14.7403 23.0577 14.8705 22.8409C15.3482 21.9725 16.0431 20.9301 16.8245 21.1041C17.2153 21.191 17.8232 21.625 17.8668 22.1463C17.9537 23.0584 16.9547 24.8385 15.9997 25.099C15.8695 25.0987 15.7392 25.0987 15.6523 25.0987L15.6523 25.0987Z" fill="white"/>
<path d="M7.61849 18.9321C7.05389 18.9321 6.66317 18.5413 6.5329 17.8031V17.499C6.57621 16.7175 7.0975 16.0227 7.79203 15.8488C8.09615 15.7619 8.44327 15.8488 8.70409 16.066C9.05152 16.3265 9.26869 16.7609 9.26869 17.195C9.26869 18.107 8.44356 18.8451 7.70543 18.9318C7.66182 18.9321 7.6185 18.9321 7.6185 18.9321L7.61849 18.9321Z" fill="white"/>
</svg>
