<svg width="21" height="30" viewBox="0 0 21 30" fill="none" xmlns="http://www.w3.org/2000/svg">
<path d="M20.0247 0C15.7175 4.52533 12.9187 9.39599 10.2698 14.7884L11.8869 15.9447C15.2937 10.9116 18.2426 6.04871 20.0244 5.40293e-05L20.0247 0ZM8.16635 8.7635C2.29501 10.3356 -1.1945 16.9096 0.376452 22.7696C1.79907 28.0748 5.57795 29.6103 8.23555 28.8988C11.6907 27.9737 6.78249 21.9852 12.4694 22.9697C13.6756 23.2473 16.8561 25.9805 19.6074 21.8568C22.0204 17.0346 19.6327 12.7792 16.1037 10.4244C14.4433 13.2608 12.6251 16.0244 11.0439 18.3186C11.2046 19.1692 10.9611 20.1322 10.5658 20.8311C9.96334 21.8747 8.75928 22.5699 7.63588 23.0569C7.77652 23.7495 7.3715 24.5192 6.897 24.8739C6.43771 25.2065 5.83588 25.3869 5.17555 25.3869C3.91424 25.2034 2.9701 23.9805 2.94983 22.8831C3.00178 22.209 3.43446 21.8065 3.95836 21.5267C4.66491 21.2433 5.33962 21.1473 6.01892 21.3094C6.70077 20.3782 6.65644 19.0844 6.94911 18.2143C7.35139 17.3338 7.90466 16.831 8.74868 16.7102C10.0412 13.9959 11.337 11.3848 12.7913 8.87707C11.2156 8.46086 9.69596 8.29972 8.16604 8.7641L8.16635 8.7635ZM8.66196 10.1023C9.79866 10.4068 10.4216 11.805 9.8618 13.1017C9.59362 13.723 9.16747 14.1597 8.65331 14.3624C8.13912 14.5649 7.59559 14.5651 7.01889 14.5448C6.14298 14.4796 5.41994 14.0273 5.4974 13.1017C5.55801 12.4718 5.86547 11.9243 5.9322 11.6759C6.39107 10.5267 7.5757 9.92177 8.66218 10.1023H8.66196ZM18.5991 16.2661C18.102 17.4837 17.0768 18.4057 15.8083 18.2397C15.1743 18.1491 14.5265 17.8621 14.0347 17.3703C13.5823 16.7901 13.7135 16.1536 14.0435 15.6054C14.605 14.7734 15.4643 13.8226 16.356 13.684C17.7761 13.6462 18.996 14.9893 18.599 16.2662L18.5991 16.2661ZM4.8454 15.1011C5.9821 15.4058 6.61372 16.7953 6.05389 18.0919C5.78571 18.7133 5.3509 19.15 4.8367 19.3525C4.3225 19.5552 3.78763 19.5639 3.21093 19.5438C2.33501 19.4782 1.61197 19.0263 1.68944 18.1007C1.75004 17.4711 2.0575 16.9233 2.12423 16.6749C2.58394 15.5203 3.784 14.9131 4.84534 15.1013L4.8454 15.1011ZM9.78358 15.8053C9.58466 16.2173 9.38236 16.6217 9.18363 17.0398C9.69043 17.1872 10.2958 17.4898 10.5746 17.8744C10.8077 17.5361 11.0317 17.2016 11.2615 16.8659L9.78358 15.8053ZM7.47088 18.3962C6.97316 19.8276 7.56527 21.0231 5.07137 23.117C4.43428 23.6519 8.97502 22.4797 10.0879 20.5524C10.5586 19.7371 10.9232 18.1384 9.87924 17.5357C8.88504 16.9505 7.78067 17.5557 7.47108 18.3964L7.47088 18.3962ZM15.417 18.9875C16.4859 18.9875 17.3644 19.8659 17.3644 20.9348C17.3644 22.0037 16.4859 22.8822 15.417 22.8822C14.3481 22.8822 13.4696 22.0037 13.4696 20.9348C13.4696 19.8659 14.3481 18.9875 15.417 18.9875ZM15.417 20.1003C14.9495 20.1003 14.5824 20.4673 14.5824 20.9349C14.5824 21.4024 14.9495 21.7694 15.417 21.7694C15.8845 21.7694 16.2516 21.4024 16.2516 20.9349C16.2516 20.4674 15.8846 20.1003 15.417 20.1003Z" fill="#65096F"/>
</svg>
