<svg width="33" height="24" viewBox="0 0 33 24" fill="none" xmlns="http://www.w3.org/2000/svg">
<g clip-path="url(#clip0_1390_5143)">
<path d="M15.4912 23.3504H31.8236C32.134 23.3504 32.4351 23.2242 32.6554 23.0002C32.8758 22.7762 33 22.4732 33 22.1545V4.69569H26.5471C26.2957 4.69569 26.0598 4.55685 25.9356 4.33282C25.8115 4.10879 25.8115 3.83427 25.9387 3.61339C26.2243 3.12746 26.3298 2.55317 26.2398 1.99467C26.1498 1.43616 25.8642 0.92814 25.439 0.562113C25.0138 0.196086 24.4768 -0.00585938 23.9181 -0.00585938C23.3625 -0.00585938 22.8225 0.196086 22.3972 0.562113C21.972 0.92814 21.6896 1.43616 21.5965 1.99467C21.5064 2.55317 21.612 3.12746 21.8975 3.61339C22.0279 3.83742 22.0279 4.1151 21.8975 4.33913C21.7703 4.56316 21.5313 4.69885 21.2768 4.69569H15.4912V9.53293C16.2579 9.35938 17.0555 9.43195 17.7787 9.74434C18.8868 10.2776 19.6721 11.3284 19.8769 12.5621C20.0818 13.7927 19.6845 15.0486 18.8123 15.9258C17.9401 16.803 16.6986 17.1911 15.4912 16.9671V23.3504Z" fill="white"/>
<path d="M18.4341 12.6154C18.6265 13.3443 18.4682 14.1237 18.0058 14.7169C17.5433 15.3101 16.8356 15.6446 16.0938 15.6225V15.6256C15.6872 15.6225 15.2868 15.512 14.933 15.3038C14.7126 15.1713 14.4395 15.1713 14.2191 15.3038C13.9987 15.4332 13.8652 15.6761 13.8683 15.9349V23.3501L13.0645 20.5765L13.1079 4.69531L13.8683 4.69847V10.577C13.8683 10.8357 14.0049 11.0724 14.2253 11.1986C14.4457 11.3248 14.7157 11.3248 14.933 11.1954C15.5661 10.801 16.3452 10.7348 17.0343 11.0124C17.7233 11.2901 18.2417 11.8865 18.4341 12.6154Z" fill="white"/>
<path d="M14.1746 23.531C13.8518 23.8591 13.3335 23.8591 13.0417 23.531L3.50054 13.8628L2.1752 12.5154C-0.574799 9.71976 -0.767237 5.21384 1.88344 2.32033C4.66448 -0.705698 9.32334 -0.771961 12.1696 2.12154L13.0417 3.00821C13.3645 3.33637 13.7215 3.80968 14.1746 4.53543V23.531Z" fill="white"/>
</g>
<defs>
<clipPath id="clip0_1390_5143">
<rect width="33" height="24" fill="white"/>
</clipPath>
</defs>
</svg>
