<svg width="25" height="24" viewBox="0 0 25 24" fill="none" xmlns="http://www.w3.org/2000/svg">
<path d="M2.08301 9C2.08301 7.11438 2.08301 6.17157 2.66879 5.58579C3.25458 5 4.19739 5 6.08301 5H18.9163C20.802 5 21.7448 5 22.3306 5.58579C22.9163 6.17157 22.9163 7.11438 22.9163 9V9C22.9163 9.4714 22.9163 9.70711 22.7699 9.85355C22.6234 10 22.3877 10 21.9163 10H3.08301C2.6116 10 2.3759 10 2.22945 9.85355C2.08301 9.70711 2.08301 9.4714 2.08301 9V9Z" fill="#73207C"/>
<path fill-rule="evenodd" clip-rule="evenodd" d="M2.08301 18C2.08301 19.8856 2.08301 20.8284 2.66879 21.4142C3.25458 22 4.19739 22 6.08301 22H18.9163C20.802 22 21.7448 22 22.3306 21.4142C22.9163 20.8284 22.9163 19.8856 22.9163 18V13C22.9163 12.5286 22.9163 12.2929 22.7699 12.1464C22.6234 12 22.3877 12 21.9163 12H3.08301C2.6116 12 2.3759 12 2.22945 12.1464C2.08301 12.2929 2.08301 12.5286 2.08301 13V18ZM7.29134 15C7.29134 14.5286 7.29134 14.2929 7.43779 14.1464C7.58423 14 7.81994 14 8.29134 14H10.458C10.9294 14 11.1651 14 11.3116 14.1464C11.458 14.2929 11.458 14.5286 11.458 15C11.458 15.4714 11.458 15.7071 11.3116 15.8536C11.1651 16 10.9294 16 10.458 16H8.29134C7.81994 16 7.58423 16 7.43779 15.8536C7.29134 15.7071 7.29134 15.4714 7.29134 15ZM7.43779 18.1464C7.29134 18.2929 7.29134 18.5286 7.29134 19C7.29134 19.4714 7.29134 19.7071 7.43779 19.8536C7.58423 20 7.81994 20 8.29134 20H10.458C10.9294 20 11.1651 20 11.3116 19.8536C11.458 19.7071 11.458 19.4714 11.458 19C11.458 18.5286 11.458 18.2929 11.3116 18.1464C11.1651 18 10.9294 18 10.458 18H8.29134C7.81994 18 7.58423 18 7.43779 18.1464ZM13.5413 15C13.5413 14.5286 13.5413 14.2929 13.6878 14.1464C13.8342 14 14.0699 14 14.5413 14H16.708C17.1794 14 17.4151 14 17.5616 14.1464C17.708 14.2929 17.708 14.5286 17.708 15C17.708 15.4714 17.708 15.7071 17.5616 15.8536C17.4151 16 17.1794 16 16.708 16H14.5413C14.0699 16 13.8342 16 13.6878 15.8536C13.5413 15.7071 13.5413 15.4714 13.5413 15ZM13.6878 18.1464C13.5413 18.2929 13.5413 18.5286 13.5413 19C13.5413 19.4714 13.5413 19.7071 13.6878 19.8536C13.8342 20 14.0699 20 14.5413 20H16.708C17.1794 20 17.4151 20 17.5616 19.8536C17.708 19.7071 17.708 19.4714 17.708 19C17.708 18.5286 17.708 18.2929 17.5616 18.1464C17.4151 18 17.1794 18 16.708 18H14.5413C14.0699 18 13.8342 18 13.6878 18.1464Z" fill="#73207C"/>
<path d="M7.29199 3L7.29199 6" stroke="#73207C" stroke-width="2" stroke-linecap="round"/>
<path d="M17.708 3L17.708 6" stroke="#73207C" stroke-width="2" stroke-linecap="round"/>
</svg>
