<svg width="25" height="24" viewBox="0 0 25 24" fill="none" xmlns="http://www.w3.org/2000/svg">
<path d="M17.4514 4.95901C17.4514 7.69769 15.2037 9.91802 12.4308 9.91802C9.65788 9.91802 7.41016 7.69788 7.41016 4.95901C7.41016 2.22033 9.65788 0 12.4308 0C15.2037 0 17.4514 2.22014 17.4514 4.95901Z" fill="#73207C"/>
<path d="M3.86059 19.1769C3.97083 19.0218 3.9812 19.0168 4.13861 18.874C4.432 18.6079 4.6105 18.4798 4.58202 18.026C4.5637 17.7366 4.31435 17.4559 4.35338 17.2328C4.39186 17.0123 4.56352 17.0978 4.53651 16.8126C4.5195 16.6304 4.4209 16.4823 4.2903 16.3562C4.17339 16.2429 3.93403 16.1987 3.84653 16.0565C3.76866 15.9301 3.85726 15.741 3.82415 15.6001C3.72685 15.1916 3.39536 15.0149 3.02782 14.9225C2.56999 14.8083 2.47712 14.8119 2.48674 14.3524C2.49506 13.9725 2.48914 13.9046 2.34874 13.5698L2.23405 13.4246C1.9316 13.3869 1.63287 13.6451 1.43772 13.8514C1.00301 14.3126 0.4971 14.8954 0.219976 15.4582C-0.0741439 16.0562 -0.033636 16.8899 0.11139 17.527C0.415871 18.8637 1.95659 21.1794 3.52652 19.6238C3.66377 19.4871 3.75072 19.3304 3.8606 19.1769H3.86059Z" fill="#73207C"/>
<path d="M20.6883 19.5666L20.6084 19.45C20.5372 19.3493 20.5372 19.3493 20.3988 19.2236L20.3452 19.1756C20.0581 18.9165 19.7601 18.6488 19.8008 17.9965C19.8145 17.7751 19.8986 17.5872 19.9665 17.4354C19.9802 17.4051 19.9972 17.3651 20.0117 17.3397C19.9088 17.2238 19.8198 17.0528 19.8467 16.7687C19.8731 16.4944 20.0037 16.2419 20.2353 16.0172C20.3389 15.9166 20.4578 15.8581 20.5527 15.8119C20.5544 15.8102 20.5561 15.8095 20.5577 15.8095C20.549 15.7223 20.5416 15.6121 20.5705 15.4916C20.6952 14.969 21.0801 14.6226 21.7157 14.4627C21.7157 14.4627 21.809 14.441 21.8624 14.4275L21.8626 8.52734L12.4308 11.2806L3 8.52734V14.4275C3.05346 14.441 3.14632 14.4627 3.14632 14.4627C3.78192 14.6228 4.16725 14.9686 4.29208 15.4916C4.32076 15.6123 4.3141 15.7223 4.30485 15.8095C4.30651 15.8095 4.30818 15.8102 4.30984 15.8119C4.40474 15.8581 4.52368 15.9166 4.62727 16.0172C4.85923 16.242 4.98946 16.4945 5.01591 16.7687C5.042 17.0523 4.95376 17.2235 4.85091 17.3397C4.86497 17.3654 4.88273 17.4051 4.89642 17.4354C4.96357 17.5872 5.0481 17.7751 5.06179 17.9965C5.10249 18.649 4.80485 18.9167 4.51739 19.1756L4.46393 19.2234C4.32557 19.3491 4.32557 19.3491 4.25435 19.4498L4.1748 19.5664C4.09323 19.6879 4.00074 19.8262 3.86773 19.9572C3.59377 20.2289 3.30297 20.4074 3.00089 20.5104V21.4145L12.4308 24.0004L21.8616 21.4147V20.5106C21.5595 20.4076 21.2691 20.2291 20.9948 19.9574C20.8614 19.8262 20.7691 19.6879 20.6882 19.5664L20.6883 19.5666Z" fill="#73207C"/>
<path d="M24.6423 15.4572C24.3646 14.8945 23.8587 14.3116 23.4245 13.8504C23.2294 13.6441 22.931 13.386 22.6282 13.4236L22.5135 13.5689C22.3726 13.9036 22.3668 13.9716 22.3751 14.3514C22.3848 14.8111 22.2926 14.8069 21.8344 14.9215C21.4669 15.0143 21.1358 15.1908 21.0381 15.5991C21.005 15.74 21.094 15.9295 21.0154 16.0556C20.9279 16.1981 20.6892 16.2417 20.572 16.3552C20.4419 16.4816 20.3428 16.6295 20.3257 16.8116C20.2993 17.0968 20.4708 17.0113 20.5085 17.2319C20.5475 17.455 20.2989 17.7352 20.2802 18.025C20.2521 18.4789 20.4306 18.6069 20.7236 18.873C20.8814 19.0162 20.8911 19.0208 21.002 19.1759C21.1114 19.3294 21.1981 19.4862 21.3356 19.6221C22.9055 21.1777 24.4457 18.862 24.7507 17.5253C24.8963 16.8889 24.9368 16.0552 24.6423 15.4572L24.6423 15.4572Z" fill="#73207C"/>
</svg>
