<svg width="22" height="25" viewBox="0 0 22 25" fill="none" xmlns="http://www.w3.org/2000/svg">
<path fill-rule="evenodd" clip-rule="evenodd" d="M20.7058 2.14229H17.7944V1.18178C17.7944 0.532366 17.2635 0 16.6126 0H15.7407C15.0898 0 14.5589 0.53236 14.5589 1.18178V2.14229H7.44132V1.18178C7.44132 0.532366 6.9098 0 6.25954 0H5.38741C4.7374 0 4.20585 0.53236 4.20585 1.18178V2.14229H1.29397C0.582697 2.14229 0 2.72493 0 3.43626V22.848C0 23.5595 0.582644 24.142 1.29397 24.142H20.7057C21.4172 24.142 22.0001 23.5595 22.0001 22.848V3.43626C22.0001 2.72477 21.4177 2.14229 20.7057 2.14229H20.7058ZM20.0592 21.9485H1.94128V7.7133H20.0592V21.9485Z" fill="#65096F"/>
<mask id="path-2-inside-1_1390_4702" fill="white">
<path fill-rule="evenodd" clip-rule="evenodd" d="M6.77775 10.2223C5.79593 11.2041 5.79592 12.7959 6.77775 13.7777L10.111 17.111C10.4779 17.4779 11.0591 17.5001 11.4519 17.1774C11.5314 17.1333 11.6061 17.0775 11.6735 17.01L15.0068 13.6768C15.9886 12.6949 15.9886 11.1031 15.0068 10.1213C14.0249 9.13945 12.4331 9.13945 11.4513 10.1213L10.8418 10.7308L10.3332 10.2223C9.35142 9.24043 7.75957 9.24043 6.77775 10.2223Z"/>
</mask>
<path fill-rule="evenodd" clip-rule="evenodd" d="M6.77775 10.2223C5.79593 11.2041 5.79592 12.7959 6.77775 13.7777L10.111 17.111C10.4779 17.4779 11.0591 17.5001 11.4519 17.1774C11.5314 17.1333 11.6061 17.0775 11.6735 17.01L15.0068 13.6768C15.9886 12.6949 15.9886 11.1031 15.0068 10.1213C14.0249 9.13945 12.4331 9.13945 11.4513 10.1213L10.8418 10.7308L10.3332 10.2223C9.35142 9.24043 7.75957 9.24043 6.77775 10.2223Z" fill="#65096F"/>
<path d="M11.4519 17.1774L10.4803 15.4293L10.3222 15.5172L10.1825 15.632L11.4519 17.1774ZM11.6735 17.01L10.2593 15.5958L10.2593 15.5958L11.6735 17.01ZM15.0068 13.6768L16.421 15.091L16.421 15.091L15.0068 13.6768ZM11.4513 10.1213L10.037 8.70706L10.037 8.70706L11.4513 10.1213ZM10.8418 10.7308L9.42755 12.145L10.8418 13.5592L12.256 12.145L10.8418 10.7308ZM8.19196 12.3635C7.99119 12.1628 7.99119 11.8372 8.19196 11.6365L5.36353 8.80804C3.60066 10.5709 3.60066 13.4291 5.36353 15.192L8.19196 12.3635ZM11.5252 15.6968L8.19196 12.3635L5.36353 15.192L8.69676 18.5252L11.5252 15.6968ZM10.1825 15.632C10.5769 15.3079 11.1574 15.329 11.5252 15.6968L8.69676 18.5252C9.79848 19.6269 11.5413 19.6922 12.7214 18.7229L10.1825 15.632ZM10.2593 15.5958C10.3245 15.5306 10.399 15.4745 10.4803 15.4293L12.4236 18.9255C12.6637 18.792 12.8877 18.6243 13.0877 18.4242L10.2593 15.5958ZM13.5925 12.2626L10.2593 15.5958L13.0877 18.4242L16.421 15.091L13.5925 12.2626ZM13.5925 11.5355C13.7933 11.7363 13.7933 12.0618 13.5925 12.2626L16.421 15.091C18.1838 13.3281 18.1838 10.4699 16.421 8.70706L13.5925 11.5355ZM12.8655 11.5355C13.0662 11.3347 13.3918 11.3347 13.5925 11.5355L16.421 8.70706C14.6581 6.94419 11.7999 6.94419 10.037 8.70706L12.8655 11.5355ZM12.256 12.145L12.8655 11.5355L10.037 8.70706L9.42755 9.31656L12.256 12.145ZM8.91903 11.6365L9.42755 12.145L12.256 9.31656L11.7475 8.80804L8.91903 11.6365ZM8.19196 11.6365C8.39274 11.4357 8.71826 11.4357 8.91903 11.6365L11.7475 8.80804C9.98459 7.04517 7.12641 7.04517 5.36353 8.80804L8.19196 11.6365Z" fill="#65096F" mask="url(#path-2-inside-1_1390_4702)"/>
</svg>
