<svg width="21" height="37" viewBox="0 0 21 37" fill="none" xmlns="http://www.w3.org/2000/svg">
<g clip-path="url(#clip0_764_2498)">
<path d="M15.707 28.6032C15.707 28.6032 18.5382 26.3444 18.9567 23.3982C19.3753 20.4519 18.9567 16.499 18.9567 16.499C18.9567 16.499 24.2006 25.7797 15.707 28.6032Z" fill="url(#paint0_linear_764_2498)"/>
<path d="M3.54521 34.7167C3.54521 34.7167 1.03408 30.4937 2.43736 26.8355C3.84064 23.1772 8.22282 17.8249 7.23806 12.3252C7.23806 12.3252 5.81016 17.0637 2.01884 21.5322C-1.79711 26.0007 0.393983 29.8063 3.54521 34.7167Z" fill="url(#paint1_linear_764_2498)"/>
<path d="M14.2299 29.2415C12.1127 25.0186 24.9638 20.0345 12.1127 0C12.1127 0 15.19 11.2449 8.14901 19.5189C2.0435 26.6881 2.63436 35.6251 8.96144 36.8527C9.25687 36.9018 9.55229 36.9509 9.84772 36.9755C9.84772 36.9755 6.03178 35.2814 6.4503 30.9111C6.89344 26.5654 9.01068 25.8288 9.84772 23.1035C9.84772 23.1035 8.61677 29.438 9.84772 31.9177C10.6848 33.6118 13.516 34.2993 14.9192 32.4824C14.9192 32.4824 14.87 35.5514 13.0482 36.7545C17.5535 35.6496 20.9755 31.4758 20.9755 28.1612C21.0001 28.1612 16.3471 33.4645 14.2299 29.2415Z" fill="url(#paint2_linear_764_2498)"/>
<path opacity="0.1" d="M14.0575 35.6986C13.8113 36.116 13.4913 36.4843 13.0728 36.7544C17.578 35.6495 21.0001 31.4757 21.0001 28.1611C21.0001 28.1611 18.1196 33.047 14.0575 35.6986Z" fill="black"/>
<path opacity="0.1" d="M4.25916 26.9092C3.07745 31.795 4.72692 36.0426 8.96139 36.8773C9.25681 36.9264 9.55224 36.9755 9.84767 37.0001C9.84767 37.0001 9.77381 36.951 9.6261 36.8773C9.6261 36.8773 3.1513 34.8886 4.25916 26.9092Z" fill="black"/>
<path opacity="0.1" d="M2.43735 26.8356C3.32364 24.5277 5.39163 21.5569 6.54872 18.2915C6.52411 18.3652 3.49597 23.3001 1.96959 25.2397C0.763261 26.762 0.861737 30.3957 3.54521 34.7414C3.54521 34.7169 1.03407 30.4939 2.43735 26.8356Z" fill="black"/>
<path opacity="0.1" d="M20.557 22.1953C20.557 22.2199 19.8184 26.5901 15.707 28.6034C19.5722 27.3021 20.6062 24.6751 20.557 22.1953Z" fill="black"/>
</g>
<defs>
<linearGradient id="paint0_linear_764_2498" x1="18.1392" y1="16.4824" x2="18.1392" y2="28.5917" gradientUnits="userSpaceOnUse">
<stop stop-color="#FBB040"/>
<stop offset="0.1681" stop-color="#FBAD3C"/>
<stop offset="0.3283" stop-color="#FAA431"/>
<stop offset="0.4849" stop-color="#F89620"/>
<stop offset="0.51" stop-color="#F7941E"/>
<stop offset="0.83" stop-color="#F15A29"/>
<stop offset="0.9225" stop-color="#EF3C25"/>
<stop offset="1" stop-color="#ED1C24"/>
</linearGradient>
<linearGradient id="paint1_linear_764_2498" x1="3.69568" y1="12.3386" x2="3.69568" y2="34.7268" gradientUnits="userSpaceOnUse">
<stop stop-color="#FBB040"/>
<stop offset="0.1681" stop-color="#FBAD3C"/>
<stop offset="0.3283" stop-color="#FAA431"/>
<stop offset="0.4849" stop-color="#F89620"/>
<stop offset="0.51" stop-color="#F7941E"/>
<stop offset="0.83" stop-color="#F15A29"/>
<stop offset="0.9225" stop-color="#EF3C25"/>
<stop offset="1" stop-color="#ED1C24"/>
</linearGradient>
<linearGradient id="paint2_linear_764_2498" x1="12.4535" y1="0" x2="12.4535" y2="36.9943" gradientUnits="userSpaceOnUse">
<stop stop-color="#FBB040"/>
<stop offset="0.1681" stop-color="#FBAD3C"/>
<stop offset="0.3283" stop-color="#FAA431"/>
<stop offset="0.4849" stop-color="#F89620"/>
<stop offset="0.51" stop-color="#F7941E"/>
<stop offset="0.83" stop-color="#F15A29"/>
<stop offset="0.9225" stop-color="#EF3C25"/>
<stop offset="1" stop-color="#ED1C24"/>
</linearGradient>
<clipPath id="clip0_764_2498">
<rect width="21" height="37" fill="white"/>
</clipPath>
</defs>
</svg>
