<svg width="78" height="25" viewBox="0 0 78 25" fill="none" xmlns="http://www.w3.org/2000/svg">
<path d="M12.2353 0L15.9031 7.18703L23.8717 8.45438L18.1699 14.1636L19.427 22.1339L12.2353 18.4753L5.04357 22.1339L6.3007 14.1636L0.598838 8.45438L8.56751 7.18703L12.2353 0Z" fill="#2FB353"/>
<path d="M65.7646 0L69.4324 7.18703L77.401 8.45438L71.6992 14.1636L72.9563 22.1339L65.7646 18.4753L58.5729 22.1339L59.83 14.1636L54.1281 8.45438L62.0968 7.18703L65.7646 0Z" fill="#2FB353"/>
<path d="M38.9999 0L42.6677 7.18703L50.6364 8.45438L44.9345 14.1636L46.1917 22.1339L38.9999 18.4753L31.8082 22.1339L33.0654 14.1636L27.3635 8.45438L35.3322 7.18703L38.9999 0Z" fill="#2FB353"/>
</svg>
