<svg width="39" height="25" viewBox="0 0 39 25" fill="none" xmlns="http://www.w3.org/2000/svg">
<path d="M3.01571 14.0702C2.92877 14.0702 2.84214 14.0269 2.79852 13.9833L0.192938 12.2919C0.0193742 12.1618 -0.0675584 11.9016 0.0626898 11.728L6.53292 0.234833C6.57623 0.148007 6.70648 0.0614833 6.79342 0.0179193C6.92366 -0.0253419 7.05391 0.0179196 7.14085 0.0611808L9.74643 1.75263C9.92 1.88271 10.0069 2.14289 9.87668 2.31653L3.40668 13.853C3.36337 13.9399 3.23312 14.0264 3.14619 14.07H3.01564L3.01571 14.0702Z" fill="#65096F"/>
<path d="M21.1665 24.0017C20.7758 24.0017 20.3414 23.9584 19.9506 23.8283C19.3427 23.655 18.865 23.3945 18.4743 23.1343C17.9097 22.744 18.1269 22.1369 18.2138 21.7899C18.2571 21.7031 18.2571 21.573 18.3007 21.5297C18.3441 21.2696 18.1272 20.7925 17.7361 20.4455C17.5626 20.3154 17.2151 20.0985 16.8677 20.1853L16.7808 20.2286C16.7375 20.2286 16.6072 20.2718 16.6072 20.2718C16.477 20.4019 16.2598 20.4019 16.1296 20.3151C15.956 20.2283 15.8691 20.0549 15.9124 19.8813C15.9557 19.7512 15.9993 19.5775 16.0426 19.491C16.0859 19.4042 16.1296 19.2741 16.1296 19.1872C16.1729 19.0139 16.1296 18.797 16.0862 18.6233C15.9993 18.2763 15.7388 17.9729 15.3914 17.8428C15.044 17.7127 14.4361 17.7127 14.2625 17.9297C14.1322 18.103 13.8281 18.1466 13.6545 18.0165C13.481 17.8864 13.4374 17.5827 13.5676 17.4093C13.7848 17.1056 13.8717 16.8454 13.8281 16.4984C13.7848 16.0213 13.5676 15.5874 13.2202 15.3273C12.9161 15.0671 12.482 14.9803 12.0912 15.0236C11.7871 15.0668 11.44 15.3273 11.1792 15.5007C10.962 15.674 10.7884 15.8909 10.5713 16.1078L10.4407 16.1514C10.2235 16.4116 10.0064 16.3683 9.87611 16.3683C9.52868 16.2815 9.39843 15.9345 9.31151 15.6743C9.31151 15.631 9.26819 15.5875 9.26819 15.5442C9.18126 15.4141 9.09463 15.284 8.96408 15.154C8.83383 15.0671 8.70358 14.9806 8.57333 14.937C8.4864 14.8938 8.39977 14.8938 8.31284 14.8938H8.26952C8.09596 14.8938 7.92209 14.937 7.79184 14.807C7.61828 14.6769 7.53135 14.6336 7.4011 14.59C7.31417 14.5468 7.22754 14.4599 7.05367 14.3731L6.96674 14.3299C5.7076 13.5926 4.57835 12.7685 5.01274 12.0312C5.05606 11.988 9.35513 4.26794 9.35513 4.26794C9.44206 4.13785 9.52869 4.05103 9.70255 4.05103C9.8328 4.05103 9.96305 4.09429 10.0933 4.18111C11.3092 5.52552 13.4804 5.4823 13.5236 5.4823C13.6972 5.4823 13.8277 5.56913 13.9144 5.69922C14.0013 5.8293 13.9577 6.00296 13.8711 6.17631C12.3947 8.1715 12.0473 9.34226 12.0473 9.34226C12.0039 9.646 11.9603 10.0795 12.2208 10.3832C12.438 10.6434 12.8721 10.7735 13.4367 10.687C14.6958 10.5569 15.912 9.90646 16.9539 8.7786C17.3883 8.34477 17.9093 7.82445 18.6041 7.56423C19.5594 7.21723 20.6018 7.91123 21.3832 8.43156C21.5135 8.51838 21.6437 8.60491 21.7307 8.64847C23.7716 9.90606 25.7689 11.2941 27.6797 12.6818C28.635 13.3758 29.5467 14.113 30.4588 14.8936L30.5457 14.9804C31.0234 15.3707 31.8918 16.1079 31.4578 17.0188C31.1537 17.7128 30.2853 17.9297 29.6773 17.7993C29.5038 17.7561 29.3732 17.6692 29.243 17.626L27.8532 16.8018C27.3756 16.4981 26.8979 16.1947 26.4203 15.8909C25.9426 15.5872 25.4649 15.2837 24.9873 15.0236C24.857 14.9368 24.7701 14.8935 24.6398 14.8067C24.3793 14.6766 24.1188 14.5029 23.8584 14.3296C23.5543 14.1127 23.3374 13.9826 23.1635 14.0694C23.0766 14.1127 23.0333 14.1562 23.0333 14.2428C22.99 14.3728 23.0333 14.5465 23.0766 14.633C23.3807 15.0233 23.8581 15.2402 24.3357 15.5004L24.5529 15.6304C25.7688 16.2376 26.8976 16.9316 27.853 17.4952C28.2874 17.7554 28.8517 18.0591 28.8084 18.8396C28.8084 19.36 28.4609 19.8371 28.0269 20.0107C27.2018 20.3144 26.2031 19.8373 25.8123 19.6204L22.0782 17.4522C21.9046 17.3654 21.4703 17.1052 21.3834 17.2353V17.2786C21.3834 17.3654 21.4703 17.5387 21.5569 17.6256C21.7741 17.7989 22.0346 17.9726 22.3384 18.1027L22.512 18.1895C23.2068 18.5797 23.9449 18.97 24.8134 19.5339L24.9437 19.6207C25.5083 19.9245 26.6372 20.6182 26.1595 21.6591C26.0293 21.9193 25.8121 22.0929 25.5083 22.223C25.0739 22.3964 24.4661 22.3531 24.0753 22.1798C23.4674 21.876 22.9028 21.5726 22.3385 21.2688C21.9911 21.0955 21.6004 20.8786 21.2096 20.7049L21.1663 20.6617C20.7755 20.4883 20.4281 20.2714 20.0373 20.2278C19.9071 20.2278 19.7768 20.2711 19.7332 20.3147C19.6899 20.3579 19.7332 20.4448 19.7765 20.488C19.9937 20.7918 20.4278 21.0084 20.8621 21.1384L21.1662 21.2685C21.6439 21.4419 22.1216 21.6588 22.5992 21.8324C22.99 21.9625 23.4243 22.1794 23.5545 22.5264C23.5979 22.7434 23.5545 22.9167 23.4243 23.1336C23.2507 23.3505 22.9899 23.5674 22.6428 23.6975C22.1651 23.9144 21.6441 24.0013 21.1665 24.0013L21.1665 24.0017Z" fill="#65096F"/>
<path d="M31.1539 14.7643C31.0669 14.7643 30.9367 14.721 30.8934 14.6774C27.3325 11.6416 24.0757 9.34297 20.9927 7.65152C19.603 6.87101 18.5174 6.87101 17.4755 7.69478C17.1281 7.95496 16.8676 8.25869 16.5202 8.60572C15.9556 9.21288 15.3476 9.8633 14.4792 10.167C14.1318 10.2971 13.3503 10.5573 12.7857 10.2971C12.5685 10.2103 12.4383 10.037 12.395 9.82005C12.308 9.47304 12.4383 8.82261 13.828 6.87102C14.6094 5.83005 15.4346 4.83261 15.6084 4.65921C16.2596 3.96521 17.2586 3.83509 18.0837 3.74827H18.1707C19.647 3.53136 21.2972 3.57492 23.1642 3.79153C23.7722 3.87836 24.3801 4.00845 24.9447 4.13854C25.3791 4.22536 25.8568 4.35545 26.2908 4.44228C26.7684 4.5291 27.2461 4.5291 27.7238 4.44228C27.854 4.44228 27.9409 4.39902 28.0712 4.35545C28.3753 4.26862 28.766 4.1821 29.2001 4.35545C29.895 4.65919 30.416 5.52653 30.7201 6.13371L30.7634 6.2638C31.2411 7.13113 31.7188 7.95524 32.1964 8.82257C32.5005 9.34292 32.8043 9.90683 33.0648 10.4272C33.0648 10.4705 33.1081 10.514 33.1951 10.6005C34.1071 12.1187 34.2373 12.3352 33.9765 12.5957C33.803 12.7691 32.3264 14.374 31.3277 14.7643H31.1538L31.1539 14.7643Z" fill="#65096F"/>
<path d="M35.8005 14.0697H35.6702C35.54 14.0264 35.453 13.9829 35.4097 13.8528L28.8961 2.22952C28.7659 2.01261 28.8528 1.75243 29.0697 1.66562L31.7186 0.104282C31.8055 0.0610213 31.9357 0.0174568 32.066 0.0610216C32.1962 0.104283 32.2832 0.147847 32.3265 0.277935L38.8834 11.8145C39.0137 12.0314 38.9267 12.2915 38.7098 12.4216L36.061 13.9826C35.9744 14.0262 35.8874 14.0695 35.8005 14.0695L35.8005 14.0697Z" fill="#65096F"/>
<path d="M9.96315 21.0094C9.78959 21.0094 9.61572 20.9662 9.48548 20.8793C9.09473 20.706 8.74731 20.2289 8.92087 19.4913C9.09444 18.5804 9.61572 17.8432 10.1367 17.1495C10.2237 17.0627 10.267 16.9761 10.3539 16.8457C10.7447 16.2818 11.2223 15.6747 11.8739 15.4577C12.1344 15.3709 12.4385 15.4145 12.699 15.5446C13.0032 15.7179 13.1767 16.0216 13.2636 16.4119C13.3939 17.236 12.9595 17.9732 12.4385 18.6237C11.9608 19.2309 11.4832 19.8813 10.9622 20.4453C10.7014 20.8358 10.3106 21.0095 9.9632 21.0095L9.96315 21.0094Z" fill="#65096F"/>
<path d="M13.0036 22.8739C12.83 22.8739 12.6562 22.8306 12.4826 22.7006C12.1352 22.4836 11.918 22.0066 11.9616 21.573C12.0049 20.7925 12.5695 20.0549 13.0472 19.4478L13.1774 19.2744C13.5249 18.8406 13.9156 18.3635 14.4366 18.3203C14.6971 18.277 15.0012 18.4071 15.2181 18.624C15.4786 18.8842 15.6088 19.1879 15.5655 19.535C15.5222 20.2722 15.0878 20.8794 14.6971 21.3997C14.6538 21.4866 14.5668 21.5731 14.5235 21.6599C14.2194 22.0937 13.8287 22.5708 13.351 22.831C13.2641 22.8739 13.1338 22.8739 13.0036 22.8739L13.0036 22.8739Z" fill="#65096F"/>
<path d="M15.652 24.6959C15.3915 24.6959 15.2177 24.6091 15.0874 24.5225C14.7833 24.2624 14.6097 23.7853 14.6531 23.2214C14.6531 22.9176 14.74 22.6574 14.8702 22.4408C15.3479 21.5735 16.0428 20.5325 16.8242 20.7062C17.215 20.793 17.8229 21.2265 17.8665 21.7471C17.9534 22.6581 16.9544 24.436 15.9994 24.6962C15.8692 24.6959 15.7389 24.6959 15.652 24.6959L15.652 24.6959Z" fill="#65096F"/>
<path d="M7.6188 18.5368C7.0542 18.5368 6.66347 18.1465 6.5332 17.4092L6.5332 17.1055C6.57652 16.325 7.09781 15.631 7.79234 15.4573C8.09645 15.3705 8.44357 15.4573 8.7044 15.6743C9.05182 15.9344 9.269 16.3683 9.269 16.8018C9.269 17.7127 8.44387 18.45 7.70574 18.5365C7.66212 18.5368 7.61881 18.5368 7.61881 18.5368L7.6188 18.5368Z" fill="#65096F"/>
</svg>
