<svg width="48" height="49" viewBox="0 0 48 49" fill="none" xmlns="http://www.w3.org/2000/svg">
<path d="M25.1807 13.1006L29.5981 18.8559L35.5588 6.9548L39.154 13.1003H46.0536C46.5804 11.537 46.8542 9.89978 46.8646 8.25052C46.8661 5.64707 45.6384 3.19619 43.5525 1.63847C41.4666 0.0811199 38.7679 -0.399837 36.2723 0.341217C33.7768 1.08227 31.7779 2.9581 30.8798 5.40155C29.9821 2.9581 27.9828 1.08199 25.4877 0.341217C22.9921 -0.399856 20.2931 0.0811675 18.2071 1.63847C16.1216 3.1961 14.8935 5.64707 14.895 8.25052C14.9058 9.89968 15.1796 11.537 15.706 13.1003L25.1807 13.1006Z" fill="#65096F"/>
<path d="M35.6996 11.2805L29.9678 22.7244L24.1634 15.1633H16.5217C20.5857 23.9242 30.8799 29.9082 30.8799 29.9082C30.8799 29.9082 41.1743 23.9245 45.2381 15.1633H37.9713L35.6996 11.2805Z" fill="#65096F"/>
<path d="M4.20131 35.6703L0.494424 36.3842C0.218383 36.4255 0.011162 36.6572 0 36.9359V47.4369C0.0122773 47.617 0.10342 47.7822 0.24926 47.8886C0.394718 47.995 0.579996 48.0318 0.755216 47.9887L4.46211 47.2747C4.73777 47.2334 4.94537 47.0017 4.95616 46.723V36.222C4.94388 36.0419 4.85274 35.8767 4.70727 35.7703C4.56181 35.6639 4.37653 35.6271 4.20131 35.6703ZM2.47806 46.1446C2.20797 46.1722 1.93899 46.0844 1.73736 45.9024C1.53572 45.7205 1.42076 45.4616 1.42076 45.19C1.42076 44.9184 1.53572 44.6595 1.73736 44.4776C1.939 44.2956 2.20797 44.2079 2.47806 44.2354C2.74815 44.2079 3.0175 44.2957 3.21913 44.4776C3.4204 44.6599 3.53535 44.9184 3.53535 45.19C3.53535 45.4616 3.4204 45.7201 3.21913 45.9024C3.01749 46.0844 2.74815 46.1722 2.47806 46.1446Z" fill="#65096F"/>
<path d="M36.5313 37.1058C31.6634 40.6881 19.2092 36.8488 27.5148 36.1166C35.5462 35.4086 34.9814 30.317 30.7533 31.6103C26.9877 32.7621 24.484 30.9469 17.8656 31.9596C13.5326 32.6226 11.8722 33.204 9.37935 35.6218V35.6222C9.34587 35.6549 9.30532 35.6795 9.26104 35.6936C9.03337 35.7665 8.24427 36.0162 7.12074 36.3752C7.00169 36.4083 6.91799 36.5143 6.91315 36.6378V44.7208C6.92096 44.815 6.97193 44.9002 7.05117 44.9519C7.13041 45.0032 7.22937 45.0151 7.31828 44.9835C10.1922 44.1375 12.1454 43.6591 12.37 43.732C24.1473 47.5527 27.7073 45.9984 29.6759 45.2889C32.3221 44.3354 36.5302 42.8354 38.734 41.7075C41.1206 40.4857 43.5336 37.0872 46.804 35.0806C50.1385 33.0348 46.4353 29.8171 36.5305 37.1059L36.5313 37.1058Z" fill="#65096F"/>
</svg>
