<svg width="52" height="45" viewBox="0 0 52 45" fill="none" xmlns="http://www.w3.org/2000/svg">
<path d="M4.32504 4.58236C6.88984 1.76927 10.3814 0.144349 14.1547 0.0099279C17.9417 -0.130979 21.5402 1.2317 24.3065 3.86407L25.4076 4.9046C25.75 5.22681 26.2806 5.22681 26.6231 4.9046L27.7242 3.86407C30.3362 1.37317 33.747 0.00358275 37.339 0.00358275C37.5135 0.00358275 37.6883 0.00358272 37.8559 0.0104676C41.6361 0.144947 45.1276 1.76981 47.6792 4.5829C52.997 10.4309 52.6546 19.6301 46.9205 25.0821L26.0124 44.9562L5.0972 25.0821C-0.650234 19.6293 -0.985809 10.4309 4.32519 4.5829L4.32504 4.58236ZM5.44635 19.8304C5.66804 20.2399 6.19816 20.4147 6.63463 20.193C7.05782 19.9649 7.21893 19.4343 6.99034 19.0111C5.08331 15.4861 5.60054 11.0008 8.23926 8.10055C8.51466 7.80497 8.76985 7.55665 9.01816 7.34185C9.19258 7.18763 9.29998 6.97925 9.32018 6.74425C9.34037 6.50925 9.25959 6.28756 9.11226 6.11314C8.95804 5.93873 8.74277 5.83133 8.50777 5.81756H8.44076C8.23285 5.81756 8.03134 5.89146 7.87024 6.03236C7.54114 6.31418 7.22581 6.62308 6.93023 6.93886C3.81458 10.3634 3.19688 15.6679 5.44631 19.8299L5.44635 19.8304ZM11.3751 4.92428C11.4894 5.32728 11.8584 5.60909 12.2949 5.56871L12.1003 4.72922L11.8786 3.88974C11.7042 3.96363 11.5564 4.09123 11.4623 4.25922C11.348 4.46759 11.3145 4.70259 11.3751 4.9243V4.92428Z" fill="#65096F"/>
</svg>
