<svg width="80" height="13" viewBox="0 0 80 13" fill="none" xmlns="http://www.w3.org/2000/svg">
<path d="M0.79825 12V0.639999H2.73425V10.272H7.99825V12H0.79825ZM11.6021 2.688C11.3675 2.92267 11.0848 3.04 10.7541 3.04C10.4235 3.04 10.1408 2.92267 9.90613 2.688C9.67146 2.45333 9.55413 2.17067 9.55413 1.84C9.55413 1.52 9.67146 1.24267 9.90613 1.008C10.1408 0.773333 10.4235 0.655999 10.7541 0.655999C11.0848 0.655999 11.3675 0.773333 11.6021 1.008C11.8475 1.24267 11.9701 1.52 11.9701 1.84C11.9701 2.17067 11.8475 2.45333 11.6021 2.688ZM9.85813 12V4.192H11.6501V12H9.85813ZM14.3935 12V5.712H13.5295V4.192H14.3935V2.768C14.3935 1.89333 14.5962 1.232 15.0015 0.783999C15.4068 0.325333 15.9935 0.0959997 16.7615 0.0959997C17.5082 0.0959997 18.1588 0.277333 18.7135 0.639999L18.3135 2.144C17.7482 1.87733 17.3162 1.744 17.0175 1.744C16.4628 1.744 16.1855 2.14933 16.1855 2.96V4.192H18.1055V5.712H16.1855V12H14.3935ZM26.5853 8C26.5853 8.192 26.5693 8.432 26.5373 8.72H20.8413C20.9586 9.27467 21.2146 9.712 21.6093 10.032C22.0039 10.3413 22.4893 10.496 23.0653 10.496C23.8759 10.496 24.5266 10.192 25.0173 9.584L26.2653 10.656C25.5079 11.6373 24.4093 12.128 22.9693 12.128C21.8173 12.128 20.8626 11.76 20.1053 11.024C19.3586 10.2773 18.9853 9.30133 18.9853 8.096C18.9853 6.912 19.3426 5.94667 20.0573 5.2C20.7826 4.45333 21.6946 4.08 22.7933 4.08C23.9346 4.08 24.8519 4.448 25.5453 5.184C26.2386 5.90933 26.5853 6.848 26.5853 8ZM24.1213 6.128C23.8013 5.84 23.3906 5.696 22.8893 5.696C22.3879 5.696 21.9559 5.83467 21.5933 6.112C21.2413 6.38933 21.0013 6.77867 20.8733 7.28H24.7773C24.6599 6.78933 24.4413 6.40533 24.1213 6.128ZM38.1549 12.096C36.5335 12.096 35.1735 11.5893 34.0749 10.576C32.9762 9.552 32.4269 8.144 32.4269 6.352C32.4269 4.67733 32.9335 3.28533 33.9469 2.176C34.9709 1.06667 36.3735 0.511999 38.1549 0.511999C39.9575 0.511999 41.4509 1.23733 42.6349 2.688L41.2109 3.888C40.3575 2.85333 39.3389 2.336 38.1549 2.336C37.0455 2.336 36.1495 2.70933 35.4669 3.456C34.7842 4.192 34.4429 5.15733 34.4429 6.352C34.4429 7.51467 34.7895 8.464 35.4829 9.2C36.1762 9.92533 37.0669 10.288 38.1549 10.288C39.3602 10.288 40.3789 9.77067 41.2109 8.736L42.6349 9.952C41.4829 11.3813 39.9895 12.096 38.1549 12.096ZM47.9406 12.128C46.7246 12.128 45.738 11.7493 44.9806 10.992C44.2233 10.2347 43.8446 9.27467 43.8446 8.112C43.8446 6.94933 44.2233 5.98933 44.9806 5.232C45.738 4.464 46.7246 4.08 47.9406 4.08C49.146 4.08 50.1273 4.45333 50.8846 5.2C51.6526 5.94667 52.0366 6.91733 52.0366 8.112C52.0366 9.296 51.6526 10.2613 50.8846 11.008C50.1273 11.7547 49.146 12.128 47.9406 12.128ZM47.9406 10.496C48.5806 10.496 49.1193 10.272 49.5566 9.824C49.994 9.376 50.2126 8.80533 50.2126 8.112C50.2126 7.39733 49.994 6.816 49.5566 6.368C49.13 5.92 48.5913 5.696 47.9406 5.696C47.2686 5.696 46.7193 5.92533 46.2926 6.384C45.8766 6.84267 45.6686 7.41867 45.6686 8.112C45.6686 8.784 45.882 9.34933 46.3086 9.808C46.7353 10.2667 47.2793 10.496 47.9406 10.496ZM59.6304 4.192H61.4224V12H59.7104V10.96H59.6784C59.1024 11.7387 58.2757 12.128 57.1984 12.128C56.0997 12.128 55.193 11.76 54.4784 11.024C53.7744 10.288 53.4224 9.32267 53.4224 8.128C53.4224 6.95467 53.7797 5.98933 54.4944 5.232C55.209 4.464 56.105 4.08 57.1824 4.08C58.2064 4.08 59.0117 4.432 59.5984 5.136H59.6304V4.192ZM57.4864 10.496C58.105 10.496 58.6277 10.2773 59.0544 9.84C59.4917 9.40267 59.7104 8.83733 59.7104 8.144C59.7104 7.45067 59.497 6.86933 59.0704 6.4C58.6544 5.93067 58.1264 5.696 57.4864 5.696C56.8464 5.696 56.313 5.92 55.8864 6.368C55.4597 6.816 55.2464 7.408 55.2464 8.144C55.2464 8.83733 55.4544 9.40267 55.8704 9.84C56.2864 10.2773 56.825 10.496 57.4864 10.496ZM67.2036 12.128C66.041 12.128 65.0863 11.7547 64.3396 11.008C63.593 10.2613 63.2196 9.296 63.2196 8.112C63.2196 6.91733 63.5983 5.94667 64.3556 5.2C65.113 4.45333 66.0836 4.08 67.2676 4.08C67.897 4.08 68.505 4.208 69.0916 4.464C69.6783 4.70933 70.1636 5.06667 70.5476 5.536L69.3316 6.592C68.8196 5.99467 68.1636 5.696 67.3636 5.696C66.6703 5.696 66.1103 5.92 65.6836 6.368C65.257 6.80533 65.0436 7.38133 65.0436 8.096C65.0436 8.81067 65.257 9.392 65.6836 9.84C66.1103 10.2773 66.6703 10.496 67.3636 10.496C68.1743 10.496 68.8356 10.2187 69.3476 9.664L70.5796 10.752C70.2276 11.1573 69.753 11.488 69.1556 11.744C68.569 12 67.9183 12.128 67.2036 12.128ZM76.6633 4.08C77.5699 4.08 78.2793 4.34133 78.7913 4.864C79.3139 5.38667 79.5753 6.208 79.5753 7.328V12H77.7833V7.792C77.7833 7.04533 77.6393 6.512 77.3513 6.192C77.0739 5.86133 76.6526 5.696 76.0873 5.696C75.4259 5.696 74.9086 5.89867 74.5353 6.304C74.1726 6.69867 73.9913 7.27467 73.9913 8.032V12H72.1993V0.223999H73.9913V5.184H74.0073C74.6686 4.448 75.5539 4.08 76.6633 4.08Z" fill="white"/>
<path d="M0.79825 12H-3.20175V16H0.79825V12ZM0.79825 0.639999V-3.36H-3.20175V0.639999H0.79825ZM2.73425 0.639999H6.73425V-3.36H2.73425V0.639999ZM2.73425 10.272H-1.26575V14.272H2.73425V10.272ZM7.99825 10.272H11.9983V6.272H7.99825V10.272ZM7.99825 12V16H11.9983V12H7.99825ZM4.79825 12V0.639999H-3.20175V12H4.79825ZM0.79825 4.64H2.73425V-3.36H0.79825V4.64ZM-1.26575 0.639999V10.272H6.73425V0.639999H-1.26575ZM2.73425 14.272H7.99825V6.272H2.73425V14.272ZM3.99825 10.272V12H11.9983V10.272H3.99825ZM7.99825 8H0.79825V16H7.99825V8ZM11.6021 2.688L8.83723 -0.202567L8.80512 -0.17185L8.7737 -0.140426L11.6021 2.688ZM11.6021 1.008L8.7737 3.83643L8.80512 3.86785L8.83723 3.89857L11.6021 1.008ZM9.85813 12H5.85813V16H9.85813V12ZM9.85813 4.192V0.191999H5.85813V4.192H9.85813ZM11.6501 4.192H15.6501V0.191999H11.6501V4.192ZM11.6501 12V16H15.6501V12H11.6501ZM8.7737 -0.140426C8.99557 -0.362297 9.2982 -0.583628 9.68061 -0.742366C10.0633 -0.901224 10.4359 -0.96 10.7541 -0.96V7.04C12.15 7.04 13.4488 6.49817 14.4306 5.51643L8.7737 -0.140426ZM10.7541 -0.96C11.0724 -0.96 11.4449 -0.901224 11.8276 -0.742366C12.2101 -0.583628 12.5127 -0.362297 12.7346 -0.140426L7.0777 5.51643C8.05944 6.49817 9.35826 7.04 10.7541 7.04V-0.96ZM12.7346 -0.140426C12.9564 0.0814443 13.1778 0.384076 13.3365 0.76649C13.4953 1.14919 13.5541 1.52174 13.5541 1.84H5.55413C5.55413 3.23587 6.09596 4.53468 7.0777 5.51643L12.7346 -0.140426ZM13.5541 1.84C13.5541 2.1814 13.4888 2.56569 13.326 2.95056C13.1644 3.33255 12.9442 3.62676 12.7346 3.83643L7.0777 -1.82043C6.12395 -0.86668 5.55413 0.415994 5.55413 1.84H13.5541ZM12.7346 3.83643C12.5127 4.0583 12.2101 4.27963 11.8276 4.43837C11.4449 4.59722 11.0724 4.656 10.7541 4.656V-3.344C9.35826 -3.344 8.05944 -2.80217 7.0777 -1.82043L12.7346 3.83643ZM10.7541 4.656C10.4359 4.656 10.0633 4.59722 9.68061 4.43837C9.2982 4.27963 8.99557 4.0583 8.7737 3.83643L14.4306 -1.82043C13.4488 -2.80217 12.15 -3.344 10.7541 -3.344V4.656ZM8.83723 3.89857C8.62692 3.69739 8.39418 3.40386 8.21998 3.01002C8.04355 2.61113 7.97013 2.2059 7.97013 1.84H15.9701C15.9701 0.356133 15.3475 -0.944677 14.367 -1.88257L8.83723 3.89857ZM7.97013 1.84C7.97013 1.49809 8.03639 1.10479 8.20874 0.707628C8.38011 0.312744 8.61431 0.0106613 8.83723 -0.202567L14.367 5.57857C15.3775 4.61201 15.9701 3.29479 15.9701 1.84H7.97013ZM13.8581 12V4.192H5.85813V12H13.8581ZM9.85813 8.192H11.6501V0.191999H9.85813V8.192ZM7.65013 4.192V12H15.6501V4.192H7.65013ZM11.6501 8H9.85813V16H11.6501V8ZM14.3935 12H10.3935V16H14.3935V12ZM14.3935 5.712H18.3935V1.712H14.3935V5.712ZM13.5295 5.712H9.5295V9.712H13.5295V5.712ZM13.5295 4.192V0.191999H9.5295V4.192H13.5295ZM14.3935 4.192V8.192H18.3935V4.192H14.3935ZM15.0015 0.783999L17.9676 3.46765L17.9833 3.45031L17.9988 3.43279L15.0015 0.783999ZM18.7135 0.639999L22.5791 1.66809L23.3222 -1.12578L20.9025 -2.70788L18.7135 0.639999ZM18.3135 2.144L16.607 5.76173L20.9461 7.80843L22.1791 3.17209L18.3135 2.144ZM16.1855 4.192H12.1855V8.192H16.1855V4.192ZM18.1055 4.192H22.1055V0.191999H18.1055V4.192ZM18.1055 5.712V9.712H22.1055V5.712H18.1055ZM16.1855 5.712V1.712H12.1855V5.712H16.1855ZM16.1855 12V16H20.1855V12H16.1855ZM18.3935 12V5.712H10.3935V12H18.3935ZM14.3935 1.712H13.5295V9.712H14.3935V1.712ZM17.5295 5.712V4.192H9.5295V5.712H17.5295ZM13.5295 8.192H14.3935V0.191999H13.5295V8.192ZM18.3935 4.192V2.768H10.3935V4.192H18.3935ZM18.3935 2.768C18.3935 2.62803 18.411 2.65395 18.3699 2.78801C18.3243 2.93684 18.2117 3.19792 17.9676 3.46765L12.0354 -1.89965C10.7197 -0.445494 10.3935 1.34002 10.3935 2.768H18.3935ZM17.9988 3.43279C17.7681 3.69381 17.4826 3.88373 17.2018 3.99347C16.9416 4.0952 16.7698 4.096 16.7615 4.096V-3.904C15.1612 -3.904 13.3547 -3.39299 12.0042 -1.86479L17.9988 3.43279ZM16.7615 4.096C16.8097 4.096 16.7946 4.10158 16.7357 4.08517C16.6733 4.06777 16.5974 4.03554 16.5245 3.98788L20.9025 -2.70788C19.6169 -3.54848 18.184 -3.904 16.7615 -3.904V4.096ZM14.8479 -0.388092L14.4479 1.11591L22.1791 3.17209L22.5791 1.66809L14.8479 -0.388092ZM20.02 -1.47373C19.3798 -1.77568 18.2614 -2.256 17.0175 -2.256V5.744C16.8016 5.744 16.6395 5.72063 16.5484 5.70402C16.4546 5.6869 16.3981 5.66987 16.3858 5.66609C16.3682 5.66065 16.4355 5.68083 16.607 5.76173L20.02 -1.47373ZM17.0175 -2.256C15.6188 -2.256 14.0823 -1.65765 13.0923 -0.210736C12.289 0.963342 12.1855 2.22306 12.1855 2.96H20.1855C20.1855 2.97269 20.1856 3.10582 20.1374 3.31744C20.0892 3.52874 19.9743 3.89808 19.6947 4.30674C19.3972 4.74157 18.9635 5.14404 18.4054 5.41596C17.8658 5.67885 17.3667 5.744 17.0175 5.744V-2.256ZM12.1855 2.96V4.192H20.1855V2.96H12.1855ZM16.1855 8.192H18.1055V0.191999H16.1855V8.192ZM14.1055 4.192V5.712H22.1055V4.192H14.1055ZM18.1055 1.712H16.1855V9.712H18.1055V1.712ZM12.1855 5.712V12H20.1855V5.712H12.1855ZM16.1855 8H14.3935V16H16.1855V8ZM26.5373 8.72V12.72H30.1174L30.5128 9.16173L26.5373 8.72ZM20.8413 8.72V4.72H15.9066L16.9279 9.54783L20.8413 8.72ZM21.6093 10.032L19.09 13.139L19.1157 13.1598L19.1417 13.1802L21.6093 10.032ZM25.0173 9.584L27.6236 6.54972L24.4948 3.86215L21.9045 7.07192L25.0173 9.584ZM26.2653 10.656L29.4319 13.0998L31.7509 10.0949L28.8716 7.62172L26.2653 10.656ZM20.1053 11.024L17.2768 13.8524L17.297 13.8726L17.3175 13.8925L20.1053 11.024ZM20.0573 5.2L17.1881 2.41286L17.1778 2.42348L17.1676 2.43417L20.0573 5.2ZM25.5453 5.184L22.6337 7.92677L22.6437 7.93739L22.6538 7.94792L25.5453 5.184ZM24.1213 6.128L21.4454 9.10118L21.4732 9.12623L21.5015 9.15076L24.1213 6.128ZM21.5933 6.112L19.1634 2.93457L19.1405 2.95214L19.1178 2.97003L21.5933 6.112ZM20.8733 7.28L16.9976 6.29047L15.7237 11.28H20.8733V7.28ZM24.7773 7.28V11.28H29.8465L28.6676 6.34971L24.7773 7.28ZM22.5853 8C22.5853 7.98842 22.5856 8.00548 22.5821 8.05792C22.5787 8.10887 22.5725 8.18134 22.5617 8.27827L30.5128 9.16173C30.5538 8.79277 30.5853 8.39353 30.5853 8H22.5853ZM26.5373 4.72H20.8413V12.72H26.5373V4.72ZM16.9279 9.54783C17.2116 10.8893 17.9003 12.1743 19.09 13.139L24.1285 6.92498C24.3039 7.0672 24.4576 7.24556 24.5733 7.44328C24.6862 7.63607 24.7349 7.79904 24.7546 7.89217L16.9279 9.54783ZM19.1417 13.1802C20.3429 14.1217 21.734 14.496 23.0653 14.496V6.496C23.1363 6.496 23.2862 6.50587 23.4838 6.56885C23.6876 6.6338 23.8932 6.73993 24.0768 6.88378L19.1417 13.1802ZM23.0653 14.496C25.0325 14.496 26.8476 13.6852 28.13 12.0961L21.9045 7.07192C22.0074 6.94442 22.1945 6.77186 22.4681 6.64403C22.7373 6.51823 22.9611 6.496 23.0653 6.496V14.496ZM22.4109 12.6183L23.6589 13.6903L28.8716 7.62172L27.6236 6.54972L22.4109 12.6183ZM23.0986 8.21217C23.0982 8.21263 23.1139 8.19276 23.1477 8.16601C23.1819 8.13889 23.2163 8.11921 23.2421 8.10768C23.2968 8.08326 23.2359 8.128 22.9693 8.128V16.128C25.4225 16.128 27.7888 15.2289 29.4319 13.0998L23.0986 8.21217ZM22.9693 8.128C22.8944 8.128 22.8499 8.12205 22.8306 8.11867C22.812 8.11543 22.8132 8.114 22.828 8.11969C22.8432 8.12556 22.8613 8.13454 22.878 8.14535C22.8945 8.15598 22.8995 8.16176 22.893 8.15546L17.3175 13.8925C18.8926 15.4233 20.8799 16.128 22.9693 16.128V8.128ZM22.9337 8.19557C22.9387 8.20056 22.9526 8.21585 22.9688 8.24068C22.985 8.26562 22.9956 8.28826 23.0013 8.30293C23.0066 8.31687 23.0031 8.31236 22.9979 8.28221C22.9926 8.2512 22.9853 8.19104 22.9853 8.096H14.9853C14.9853 10.1991 15.672 12.2476 17.2768 13.8524L22.9337 8.19557ZM22.9853 8.096C22.9853 7.90776 23.0131 7.8494 23.0045 7.87258C23.0007 7.88276 22.9924 7.90165 22.9785 7.92384C22.9646 7.94599 22.9521 7.96037 22.9469 7.96583L17.1676 2.43417C15.6358 4.03452 14.9853 6.04321 14.9853 8.096H22.9853ZM22.9264 7.98714C22.9309 7.98244 22.9208 7.9936 22.8946 8.01149C22.8679 8.02972 22.8354 8.0476 22.8006 8.06184C22.7662 8.07595 22.742 8.08139 22.7345 8.08278C22.7279 8.08401 22.7455 8.08 22.7933 8.08V0.0799994C20.6805 0.0799994 18.712 0.844133 17.1881 2.41286L22.9264 7.98714ZM22.7933 8.08C22.9317 8.08 22.9302 8.10142 22.848 8.06842C22.8089 8.05276 22.7649 8.02993 22.7218 8.00035C22.6789 7.97095 22.6495 7.9436 22.6337 7.92677L28.4568 2.44122C26.9068 0.795814 24.8806 0.0799994 22.7933 0.0799994V8.08ZM22.6538 7.94792C22.643 7.93671 22.626 7.91633 22.6083 7.888C22.5905 7.85964 22.5791 7.83441 22.573 7.81779C22.5671 7.80184 22.5697 7.80381 22.5741 7.83033C22.5787 7.85762 22.5853 7.91242 22.5853 8H30.5853C30.5853 5.98266 29.9475 4.00056 28.4367 2.42007L22.6538 7.94792ZM26.7971 3.15482C25.6235 2.09861 24.2059 1.696 22.8893 1.696V9.696C22.7565 9.696 22.5289 9.67658 22.2497 9.57867C21.9612 9.47753 21.6831 9.31507 21.4454 9.10118L26.7971 3.15482ZM22.8893 1.696C21.6008 1.696 20.2929 2.07087 19.1634 2.93457L24.0231 9.28943C23.8433 9.42686 23.6341 9.53724 23.4118 9.6086C23.1935 9.67865 23.0104 9.696 22.8893 9.696V1.696ZM19.1178 2.97003C17.9715 3.87316 17.308 5.07469 16.9976 6.29047L24.7489 8.26953C24.7259 8.35975 24.672 8.51995 24.5543 8.71099C24.4332 8.90744 24.269 9.09616 24.0687 9.25397L19.1178 2.97003ZM20.8733 11.28H24.7773V3.28H20.8733V11.28ZM28.6676 6.34971C28.3939 5.20547 27.8064 4.0286 26.741 3.10524L21.5015 9.15076C21.0761 8.78207 20.9259 8.37319 20.8869 8.21029L28.6676 6.34971ZM34.0749 10.576L31.3476 13.5021L31.3553 13.5092L31.3629 13.5163L34.0749 10.576ZM33.9469 2.176L31.0077 -0.53712L31.0006 -0.529454L30.9935 -0.521752L33.9469 2.176ZM42.6349 2.688L45.2125 5.74675L48.2235 3.20934L45.7337 0.158773L42.6349 2.688ZM41.2109 3.888L38.125 6.43306L40.6972 9.5518L43.7885 6.94675L41.2109 3.888ZM35.4669 3.456L38.3996 6.17617L38.4093 6.16566L38.419 6.15508L35.4669 3.456ZM35.4829 9.2L32.5713 11.9428L32.5813 11.9534L32.5914 11.9639L35.4829 9.2ZM41.2109 8.736L43.8084 5.69415L40.6754 3.01878L38.0937 6.22939L41.2109 8.736ZM42.6349 9.952L45.7493 12.4621L48.1891 9.43494L45.2324 6.91015L42.6349 9.952ZM38.1549 8.096C37.4457 8.096 37.0812 7.90723 36.7868 7.63569L31.3629 13.5163C33.2659 15.2714 35.6214 16.096 38.1549 16.096V8.096ZM36.8021 7.64989C36.6709 7.52761 36.4269 7.26677 36.4269 6.352H28.4269C28.4269 9.02123 29.2815 11.5764 31.3476 13.5021L36.8021 7.64989ZM36.4269 6.352C36.4269 5.55218 36.6391 5.15958 36.9002 4.87375L30.9935 -0.521752C29.228 1.41109 28.4269 3.80249 28.4269 6.352H36.4269ZM36.8861 4.88912C37.0161 4.74824 37.271 4.512 38.1549 4.512V-3.488C35.4761 -3.488 32.9256 -2.61491 31.0077 -0.53712L36.8861 4.88912ZM38.1549 4.512C38.7034 4.512 39.0777 4.65568 39.536 5.21723L45.7337 0.158773C43.8241 -2.18101 41.2117 -3.488 38.1549 -3.488V4.512ZM40.0573 -0.370754L38.6333 0.829246L43.7885 6.94675L45.2125 5.74675L40.0573 -0.370754ZM44.2968 1.34294C42.797 -0.475475 40.7007 -1.664 38.1549 -1.664V6.336C38.1573 6.336 38.1354 6.33598 38.0973 6.32704C38.0587 6.31796 38.0229 6.30426 37.9956 6.29043C37.9694 6.27711 37.9668 6.27164 37.9869 6.28835C38.0081 6.30595 38.0558 6.34922 38.125 6.43306L44.2968 1.34294ZM38.1549 -1.664C36.0434 -1.664 34.0331 -0.903796 32.5148 0.756922L38.419 6.15508C38.4064 6.16881 38.3783 6.19652 38.3334 6.22836C38.2881 6.26052 38.2383 6.28789 38.1893 6.30831C38.0852 6.35172 38.0534 6.336 38.1549 6.336V-1.664ZM32.5342 0.735826C31.0386 2.34826 30.4429 4.3519 30.4429 6.352H38.4429C38.4429 6.13471 38.4737 6.05507 38.4701 6.06546C38.4684 6.07024 38.4612 6.0884 38.446 6.11372C38.4307 6.13922 38.4138 6.16084 38.3996 6.17617L32.5342 0.735826ZM30.4429 6.352C30.4429 8.37004 31.0739 10.3532 32.5713 11.9428L38.3944 6.45723C38.4026 6.46591 38.4169 6.48308 38.4319 6.5074C38.4469 6.53173 38.456 6.55237 38.4602 6.56394C38.4696 6.58965 38.4429 6.53465 38.4429 6.352H30.4429ZM32.5914 11.9639C34.1073 13.5498 36.077 14.288 38.1549 14.288V6.288C38.0605 6.288 38.0868 6.27367 38.1794 6.31134C38.2224 6.32888 38.2657 6.35213 38.3046 6.37886C38.3431 6.40531 38.366 6.42738 38.3744 6.43607L32.5914 11.9639ZM38.1549 14.288C40.7053 14.288 42.8246 13.1123 44.3281 11.2426L38.0937 6.22939C38.0333 6.30442 37.9942 6.33952 37.9816 6.35009C37.9702 6.35969 37.9801 6.3496 38.0116 6.33356C38.0267 6.32594 38.0441 6.31825 38.0633 6.31126C38.0824 6.30428 38.1009 6.29891 38.1176 6.29502C38.1528 6.28683 38.1681 6.288 38.1549 6.288V14.288ZM38.6133 11.7778L40.0373 12.9938L45.2324 6.91015L43.8084 5.69415L38.6133 11.7778ZM39.5205 7.4419C39.1273 7.92977 38.7786 8.096 38.1549 8.096V16.096C41.2004 16.096 43.8385 14.8329 45.7493 12.4621L39.5205 7.4419ZM44.9806 10.992L42.1522 13.8204L42.1522 13.8204L44.9806 10.992ZM44.9806 5.232L47.8091 8.06043L47.8189 8.05054L47.8288 8.04058L44.9806 5.232ZM50.8846 5.2L48.0763 8.04841L48.0863 8.05823L48.0963 8.06798L50.8846 5.2ZM50.8846 11.008L48.0963 8.14002L48.0863 8.14977L48.0763 8.15958L50.8846 11.008ZM49.5566 9.824L46.6943 7.02985L46.6943 7.02985L49.5566 9.824ZM49.5566 6.368L46.6601 9.12662L46.6771 9.14449L46.6943 9.16215L49.5566 6.368ZM46.2926 6.384L43.3639 3.65958L43.3467 3.67805L43.3297 3.69674L46.2926 6.384ZM46.3086 9.808L49.2374 7.08358L49.2374 7.08358L46.3086 9.808ZM47.9406 8.128C47.7498 8.128 47.6943 8.09902 47.7218 8.10958C47.7338 8.11418 47.7533 8.12334 47.7748 8.13733C47.7848 8.14384 47.7931 8.15003 47.7995 8.15519C47.8026 8.15771 47.8049 8.15977 47.8066 8.16127C47.8082 8.16277 47.8091 8.16358 47.8091 8.16357L42.1522 13.8204C43.7634 15.4316 45.8201 16.128 47.9406 16.128V8.128ZM47.8091 8.16357C47.8017 8.15627 47.808 8.16132 47.8198 8.17917C47.8318 8.19736 47.8423 8.2178 47.8496 8.23628C47.8567 8.25429 47.8562 8.25885 47.8535 8.24352C47.8506 8.22734 47.8446 8.18536 47.8446 8.112H39.8446C39.8446 10.2354 40.5768 12.245 42.1522 13.8204L47.8091 8.16357ZM47.8446 8.112C47.8446 8.03864 47.8506 7.99666 47.8535 7.98048C47.8562 7.96515 47.8567 7.96971 47.8496 7.98772C47.8423 8.0062 47.8318 8.02664 47.8198 8.04483C47.808 8.06268 47.8017 8.06773 47.8091 8.06043L42.1522 2.40357C40.5768 3.97898 39.8446 5.98856 39.8446 8.112H47.8446ZM47.8288 8.04058C47.8289 8.04047 47.8179 8.05128 47.7963 8.06559C47.7744 8.08002 47.7537 8.09009 47.7394 8.09564C47.7258 8.10093 47.7298 8.09759 47.7586 8.09257C47.7883 8.08739 47.847 8.08 47.9406 8.08V0.0799994C45.8032 0.0799994 43.7401 0.793152 42.1325 2.42342L47.8288 8.04058ZM47.9406 8.08C48.1283 8.08 48.1839 8.10832 48.1583 8.09859C48.1473 8.0944 48.1289 8.08587 48.1085 8.0727C48.099 8.06659 48.0911 8.06079 48.0851 8.05598C48.0792 8.05119 48.0763 8.04834 48.0763 8.04841L53.6929 2.35158C52.0852 0.766553 50.0447 0.0799994 47.9406 0.0799994V8.08ZM48.0963 8.06798C48.0966 8.06827 48.0933 8.06508 48.0876 8.05825C48.0818 8.05137 48.0746 8.04201 48.0668 8.03031C48.05 8.00535 48.0372 7.98 48.0291 7.95946C48.0212 7.93956 48.0225 7.93613 48.0261 7.95646C48.0299 7.97773 48.0366 8.02757 48.0366 8.112H56.0366C56.0366 5.97389 55.3086 3.92221 53.6729 2.33202L48.0963 8.06798ZM48.0366 8.112C48.0366 8.19176 48.0302 8.2376 48.027 8.2555C48.0239 8.27246 48.0234 8.26676 48.0319 8.24552C48.0406 8.22369 48.0537 8.19818 48.07 8.1739C48.0861 8.14994 48.0976 8.13874 48.0963 8.14002L53.6729 13.876C55.3011 12.293 56.0366 10.2509 56.0366 8.112H48.0366ZM48.0763 8.15958C48.0763 8.15966 48.0792 8.15681 48.0851 8.15202C48.0911 8.1472 48.099 8.14141 48.1085 8.1353C48.1289 8.12213 48.1473 8.1136 48.1583 8.10941C48.1839 8.09968 48.1283 8.128 47.9406 8.128V16.128C50.0447 16.128 52.0852 15.4414 53.6929 13.8564L48.0763 8.15958ZM47.9406 14.496C49.6312 14.496 51.2102 13.8563 52.4189 12.6181L46.6943 7.02985C46.8247 6.8963 47.0242 6.74463 47.2888 6.63461C47.5515 6.52536 47.7849 6.496 47.9406 6.496V14.496ZM52.4189 12.6181C53.667 11.3396 54.2126 9.72696 54.2126 8.112H46.2126C46.2126 8.03464 46.2258 7.85749 46.3134 7.62876C46.404 7.39245 46.5418 7.18615 46.6943 7.02985L52.4189 12.6181ZM54.2126 8.112C54.2126 6.51315 53.6903 4.87621 52.4189 3.57385L46.6943 9.16215C46.5296 8.99341 46.3918 8.77982 46.3047 8.54826C46.2213 8.32636 46.2126 8.1642 46.2126 8.112H54.2126ZM52.4532 3.60938C51.2289 2.32384 49.6225 1.696 47.9406 1.696V9.696C47.7996 9.696 47.5673 9.66991 47.2968 9.55739C47.0218 9.44304 46.8068 9.28064 46.6601 9.12662L52.4532 3.60938ZM47.9406 1.696C46.2481 1.696 44.6068 2.32348 43.3639 3.65958L49.2214 9.10842C49.0671 9.27427 48.8446 9.44279 48.5656 9.55925C48.2931 9.67304 48.0657 9.696 47.9406 9.696V1.696ZM43.3297 3.69674C42.165 4.98094 41.6686 6.55327 41.6686 8.112H49.6686C49.6686 8.16799 49.6595 8.31737 49.5868 8.51858C49.5116 8.72694 49.3941 8.91849 49.2555 9.07126L43.3297 3.69674ZM41.6686 8.112C41.6686 9.71442 42.2118 11.2767 43.3799 12.5324L49.2374 7.08358C49.3647 7.22041 49.4875 7.40648 49.571 7.62777C49.6527 7.84427 49.6686 8.01946 49.6686 8.112H41.6686ZM43.3799 12.5324C44.6094 13.8542 46.2378 14.496 47.9406 14.496V6.496C48.0795 6.496 48.3148 6.52194 48.5905 6.63814C48.8711 6.75643 49.0895 6.92461 49.2374 7.08358L43.3799 12.5324ZM59.6304 4.192V0.191999H55.6304V4.192H59.6304ZM61.4224 4.192H65.4224V0.191999H61.4224V4.192ZM61.4224 12V16H65.4224V12H61.4224ZM59.7104 12H55.7104V16H59.7104V12ZM59.7104 10.96H63.7104V6.96H59.7104V10.96ZM59.6784 10.96V6.96H57.6618L56.4626 8.5812L59.6784 10.96ZM54.4784 11.024L51.5878 13.7889L51.5982 13.7998L51.6087 13.8105L54.4784 11.024ZM54.4944 5.232L57.4036 7.97729L57.4131 7.96714L57.4227 7.95692L54.4944 5.232ZM59.5984 5.136L56.5255 7.69674L57.7249 9.136H59.5984V5.136ZM59.6304 5.136V9.136H63.6304V5.136H59.6304ZM59.0544 9.84L56.2259 7.01157L56.2085 7.02903L56.1912 7.0467L59.0544 9.84ZM59.0704 6.4L56.077 9.05323L56.0937 9.07207L56.1106 9.09069L59.0704 6.4ZM55.8864 6.368L52.9898 3.60938L52.9898 3.60938L55.8864 6.368ZM55.8704 9.84L52.9721 12.5969L52.9721 12.5969L55.8704 9.84ZM59.6304 8.192H61.4224V0.191999H59.6304V8.192ZM57.4224 4.192V12H65.4224V4.192H57.4224ZM61.4224 8H59.7104V16H61.4224V8ZM63.7104 12V10.96H55.7104V12H63.7104ZM59.7104 6.96H59.6784V14.96H59.7104V6.96ZM56.4626 8.5812C56.5438 8.47147 56.7008 8.32146 56.9221 8.21725C57.1289 8.11983 57.2523 8.128 57.1984 8.128V16.128C59.3797 16.128 61.4712 15.2624 62.8942 13.3388L56.4626 8.5812ZM57.1984 8.128C57.1473 8.128 57.1273 8.12376 57.1324 8.1247C57.1384 8.1258 57.1627 8.13105 57.1987 8.14566C57.2351 8.16043 57.2708 8.17966 57.3017 8.20071C57.3164 8.21071 57.3278 8.21966 57.336 8.22657C57.3442 8.23345 57.3481 8.23749 57.3481 8.23747L51.6087 13.8105C53.134 15.3814 55.1038 16.128 57.1984 16.128V8.128ZM57.3689 8.25911C57.3812 8.27193 57.3983 8.29268 57.4149 8.31955C57.4316 8.34633 57.4407 8.36775 57.4443 8.37769C57.4522 8.3992 57.4224 8.33259 57.4224 8.128H49.4224C49.4224 10.162 50.05 12.1812 51.5878 13.7889L57.3689 8.25911ZM57.4224 8.128C57.4224 7.94976 57.4488 7.89323 57.4416 7.91258C57.4387 7.92048 57.4321 7.93536 57.4215 7.95238C57.411 7.96929 57.403 7.97787 57.4036 7.97729L51.5852 2.48671C50.0795 4.08234 49.4224 6.07387 49.4224 8.128H57.4224ZM57.4227 7.95692C57.4298 7.94919 57.4201 7.96091 57.3914 7.98148C57.3619 8.00253 57.3232 8.02525 57.2781 8.04458C57.2331 8.06383 57.1957 8.07382 57.1724 8.07835C57.1501 8.0827 57.1513 8.08 57.1824 8.08V0.0799994C55.0281 0.0799994 53.0602 0.901427 51.5661 2.50708L57.4227 7.95692ZM57.1824 8.08C57.2331 8.08 57.1314 8.08745 56.9524 8.00919C56.7611 7.92558 56.6125 7.80115 56.5255 7.69674L62.6713 2.57526C61.2294 0.845083 59.2364 0.0799994 57.1824 0.0799994V8.08ZM59.5984 9.136H59.6304V1.136H59.5984V9.136ZM63.6304 5.136V4.192H55.6304V5.136H63.6304ZM57.4864 14.496C59.1677 14.496 60.7274 13.8531 61.9175 12.6333L56.1912 7.0467C56.3233 6.91136 56.5266 6.75572 56.7986 6.64192C57.0695 6.52856 57.3147 6.496 57.4864 6.496V14.496ZM61.8828 12.6684C63.164 11.3873 63.7104 9.75791 63.7104 8.144H55.7104C55.7104 8.06739 55.7233 7.88385 55.8157 7.64501C55.9115 7.39731 56.0589 7.17861 56.2259 7.01157L61.8828 12.6684ZM63.7104 8.144C63.7104 6.5561 63.1908 4.98605 62.0301 3.70931L56.1106 9.09069C55.9852 8.95274 55.8708 8.77205 55.7952 8.56603C55.7217 8.36575 55.7104 8.21163 55.7104 8.144H63.7104ZM62.0638 3.74677C60.871 2.40109 59.2441 1.696 57.4864 1.696V9.696C57.3073 9.696 57.0379 9.6606 56.7378 9.52725C56.4357 9.39298 56.2155 9.20955 56.077 9.05323L62.0638 3.74677ZM57.4864 1.696C55.7942 1.696 54.2003 2.3384 52.9898 3.60938L58.7829 9.12662C58.6427 9.27381 58.4318 9.43581 58.1553 9.55193C57.8818 9.6668 57.6415 9.696 57.4864 9.696V1.696ZM52.9898 3.60938C51.7236 4.93894 51.2464 6.5884 51.2464 8.144H59.2464C59.2464 8.1615 59.2436 8.2983 59.1695 8.50408C59.0911 8.72148 58.9594 8.94132 58.7829 9.12662L52.9898 3.60938ZM51.2464 8.144C51.2464 9.69933 51.7432 11.3049 52.9721 12.5969L58.7686 7.08314C58.9359 7.25905 59.0715 7.4763 59.1564 7.70682C59.2377 7.92779 59.2464 8.08948 59.2464 8.144H51.2464ZM52.9721 12.5969C54.2197 13.9084 55.8457 14.496 57.4864 14.496V6.496C57.601 6.496 57.8211 6.51622 58.0909 6.62573C58.3686 6.73846 58.6001 6.90604 58.7686 7.08314L52.9721 12.5969ZM64.3396 11.008L67.1681 8.17957L64.3396 11.008ZM64.3556 5.2L67.1639 8.04842L67.1639 8.04841L64.3556 5.2ZM69.0916 4.464L67.4918 8.13016L67.52 8.14246L67.5484 8.15432L69.0916 4.464ZM70.5476 5.536L73.1704 8.55613L76.1031 6.00929L73.6435 3.00305L70.5476 5.536ZM69.3316 6.592L66.2946 9.19517L68.9146 12.2519L71.9544 9.61213L69.3316 6.592ZM65.6836 6.368L68.5468 9.16129L68.5636 9.14406L68.5802 9.12662L65.6836 6.368ZM65.6836 9.84L62.7871 12.5986L62.8037 12.6161L62.8205 12.6333L65.6836 9.84ZM69.3476 9.664L71.9954 6.66579L69.0625 4.07566L66.4084 6.95088L69.3476 9.664ZM70.5796 10.752L73.5998 13.3747L76.2008 10.3796L73.2274 7.75379L70.5796 10.752ZM69.1556 11.744L67.5799 8.06742L67.5679 8.07259L67.5558 8.07784L69.1556 11.744ZM67.2036 8.128C67.1271 8.128 67.0828 8.12188 67.0652 8.11877C67.0484 8.11581 67.0531 8.11515 67.0724 8.12272C67.0923 8.13051 67.1158 8.14229 67.1381 8.15696C67.1601 8.17145 67.17 8.18154 67.1681 8.17957L61.5112 13.8364C63.0874 15.4126 65.0979 16.128 67.2036 16.128V8.128ZM67.1681 8.17957C67.1696 8.18108 67.1816 8.19371 67.197 8.21716C67.2124 8.2408 67.2236 8.26386 67.2303 8.28118C67.2368 8.29787 67.2347 8.29794 67.2306 8.27446C67.2264 8.25011 67.2196 8.19785 67.2196 8.112H59.2196C59.2196 10.2163 59.9205 12.2457 61.5112 13.8364L67.1681 8.17957ZM67.2196 8.112C67.2196 8.02455 67.2265 7.97152 67.2308 7.94705C67.235 7.92348 67.237 7.9241 67.2301 7.94174C67.223 7.96003 67.2111 7.98417 67.1948 8.00883C67.1786 8.03329 67.1658 8.04656 67.1639 8.04842L61.5473 2.35158C59.9304 3.94569 59.2196 5.99115 59.2196 8.112H67.2196ZM67.1639 8.04841C67.1665 8.04589 67.1582 8.05432 67.1392 8.06661C67.12 8.07904 67.1012 8.08813 67.0875 8.09338C67.0745 8.09842 67.0772 8.09565 67.1025 8.09128C67.1286 8.08675 67.1818 8.08 67.2676 8.08V0.0799994C65.1627 0.0799994 63.1409 0.780452 61.5473 2.35158L67.1639 8.04841ZM67.2676 8.08C67.3368 8.08 67.4009 8.09048 67.4918 8.13016L70.6914 0.797843C69.609 0.325521 68.4571 0.0799994 67.2676 0.0799994V8.08ZM67.5484 8.15432C67.5641 8.16087 67.5515 8.15736 67.524 8.13711C67.4958 8.11633 67.4702 8.09142 67.4518 8.06895L73.6435 3.00305C72.8242 2.00168 71.7956 1.2591 70.6348 0.77368L67.5484 8.15432ZM67.9249 2.51587L66.7089 3.57187L71.9544 9.61213L73.1704 8.55613L67.9249 2.51587ZM72.3687 3.98883C71.0821 2.48785 69.3087 1.696 67.3636 1.696V9.696C67.2551 9.696 67.0453 9.67294 66.7982 9.56045C66.5493 9.44715 66.3824 9.29758 66.2946 9.19517L72.3687 3.98883ZM67.3636 1.696C65.7211 1.696 64.0635 2.26912 62.7871 3.60938L68.5802 9.12662C68.4077 9.30767 68.1766 9.47093 67.9092 9.57791C67.6515 9.68098 67.4505 9.696 67.3636 9.696V1.696ZM62.8205 3.5747C61.542 4.88515 61.0436 6.52793 61.0436 8.096H69.0436C69.0436 8.13669 69.0372 8.29437 68.9546 8.51726C68.8679 8.75136 68.7265 8.97704 68.5468 9.16129L62.8205 3.5747ZM61.0436 8.096C61.0436 9.66646 61.5421 11.2914 62.7871 12.5986L68.5802 7.08138C68.7449 7.25433 68.8769 7.46701 68.9588 7.68997C69.0369 7.90301 69.0436 8.05448 69.0436 8.096H61.0436ZM62.8205 12.6333C64.1041 13.9489 65.7511 14.496 67.3636 14.496V6.496C67.4394 6.496 67.6295 6.50873 67.8785 6.60598C68.1378 6.70723 68.3691 6.86463 68.5468 7.0467L62.8205 12.6333ZM67.3636 14.496C69.1982 14.496 70.9571 13.8177 72.2868 12.3771L66.4084 6.95088C66.5203 6.82962 66.695 6.69386 66.9207 6.59922C67.1398 6.50735 67.3068 6.496 67.3636 6.496V14.496ZM66.6999 12.6622L67.9319 13.7502L73.2274 7.75379L71.9954 6.66579L66.6999 12.6622ZM67.5595 8.12925C67.616 8.06422 67.6605 8.03071 67.6732 8.02188C67.6841 8.01427 67.659 8.03353 67.5799 8.06742L70.7313 15.4206C71.7684 14.9761 72.7773 14.3218 73.5998 13.3747L67.5595 8.12925ZM67.5558 8.07784C67.5296 8.08931 67.432 8.128 67.2036 8.128V16.128C68.4045 16.128 69.6084 15.9107 70.7554 15.4102L67.5558 8.07784ZM78.7913 4.864L75.9338 7.66312L75.9482 7.67785L75.9628 7.69243L78.7913 4.864ZM79.5753 12V16H83.5753V12H79.5753ZM77.7833 12H73.7833V16H77.7833V12ZM77.3513 6.192L74.2865 8.76245L74.3314 8.81595L74.3781 8.86786L77.3513 6.192ZM74.5353 6.304L71.5931 3.5941L71.5899 3.5975L74.5353 6.304ZM73.9913 12V16H77.9913V12H73.9913ZM72.1993 12H68.1993V16H72.1993V12ZM72.1993 0.223999V-3.776H68.1993V0.223999H72.1993ZM73.9913 0.223999H77.9913V-3.776H73.9913V0.223999ZM73.9913 5.184H69.9913V9.184H73.9913V5.184ZM74.0073 5.184V9.184H75.7906L76.9826 7.85748L74.0073 5.184ZM76.6633 8.08C76.7363 8.08 76.659 8.09074 76.4924 8.02937C76.3099 7.96213 76.1065 7.83942 75.9338 7.66312L81.6487 2.06488C80.2124 0.598713 78.3718 0.0799994 76.6633 0.0799994V8.08ZM75.9628 7.69243C75.7024 7.43196 75.5986 7.18226 75.5675 7.08482C75.5425 7.00611 75.5753 7.06335 75.5753 7.328H83.5753C83.5753 5.68509 83.2023 3.61821 81.6197 2.03557L75.9628 7.69243ZM75.5753 7.328V12H83.5753V7.328H75.5753ZM79.5753 8H77.7833V16H79.5753V8ZM81.7833 12V7.792H73.7833V12H81.7833ZM81.7833 7.792C81.7833 6.72122 81.6128 4.94763 80.3244 3.51614L74.3781 8.86786C73.9998 8.44755 73.8604 8.04808 73.8135 7.87466C73.768 7.7061 73.7833 7.65616 73.7833 7.792H81.7833ZM80.416 3.62155C79.1583 2.12194 77.443 1.696 76.0873 1.696V9.696C75.9898 9.696 75.7209 9.6828 75.3661 9.54358C74.9857 9.39429 74.5987 9.13476 74.2865 8.76245L80.416 3.62155ZM76.0873 1.696C74.5506 1.696 72.8738 2.20356 71.5931 3.5941L77.4774 9.0139C77.2496 9.26131 76.9637 9.45432 76.6623 9.5724C76.3768 9.68426 76.163 9.696 76.0873 9.696V1.696ZM71.5899 3.5975C70.3133 4.98679 69.9913 6.68566 69.9913 8.032H77.9913C77.9913 7.86367 78.0319 8.41054 77.4806 9.0105L71.5899 3.5975ZM69.9913 8.032V12H77.9913V8.032H69.9913ZM73.9913 8H72.1993V16H73.9913V8ZM76.1993 12V0.223999H68.1993V12H76.1993ZM72.1993 4.224H73.9913V-3.776H72.1993V4.224ZM69.9913 0.223999V5.184H77.9913V0.223999H69.9913ZM73.9913 9.184H74.0073V1.184H73.9913V9.184ZM76.9826 7.85748C76.9607 7.88177 76.9232 7.91811 76.8691 7.95669C76.8147 7.99553 76.7572 8.02691 76.7026 8.04962C76.5883 8.0971 76.5537 8.08 76.6633 8.08V0.0799994C74.5717 0.0799994 72.5484 0.82283 71.0319 2.51052L76.9826 7.85748Z" fill="#2C294A"/>
</svg>
