<svg width="33" height="46" viewBox="0 0 33 46" fill="none" xmlns="http://www.w3.org/2000/svg">
<path d="M16.2066 4.01943C16.7876 4.01943 17.2237 3.53503 17.2237 3.00232L17.2237 1.01712C17.2237 0.436109 16.7393 0 16.2066 0C15.6738 0 15.1895 0.484397 15.1895 1.01712L15.1895 3.00266C15.1895 3.58367 15.6255 4.01943 16.2066 4.01943Z" fill="#65096F"/>
<path d="M19.451 4.84261C19.5962 4.93955 19.7415 4.93955 19.9354 4.93955C20.3228 4.93955 20.6616 4.746 20.8555 4.35855L21.727 2.61522C22.0175 2.13082 21.824 1.50116 21.2913 1.2107C20.7586 0.968497 20.1776 1.16239 19.8871 1.64645L19.0156 3.38978C18.7731 3.92248 18.967 4.55209 19.451 4.84264L19.451 4.84261Z" fill="#65096F"/>
<path d="M11.5578 4.35818C11.7514 4.69733 12.0905 4.93919 12.478 4.93919C12.6232 4.93919 12.8171 4.89089 12.9624 4.84224C13.4951 4.60004 13.6886 3.97075 13.3981 3.43807L12.5266 1.69474C12.2844 1.16204 11.6552 0.968488 11.1225 1.25898C10.5898 1.50118 10.3962 2.13047 10.6867 2.66316L11.5578 4.35818Z" fill="#65096F"/>
<path d="M20.7582 33.2203C19.5476 32.3971 17.9012 32.6393 16.884 33.7047L16.2061 34.334L15.4799 33.656C14.1239 32.3001 11.8479 32.4937 10.7342 34.1404C9.91101 35.3511 10.1532 36.9975 11.2186 38.0146L15.9159 42.7119C16.0612 42.8572 16.3517 42.8572 16.4969 42.7119L21.2426 37.9663C22.5985 36.61 22.4046 34.334 20.7582 33.2203L20.7582 33.2203Z" fill="#65096F"/>
<path d="M31.9928 22.9055L29.765 17.5302C28.9418 15.5447 26.7627 14.431 24.7771 15.0606C23.5665 15.448 22.7433 16.2229 22.2106 17.2883C21.6779 18.3538 19.5471 22.8089 19.5471 22.8089L17.5615 24.31C18.6752 25.569 18.8205 27.4575 17.9007 28.8621C18.2881 28.8621 18.6756 28.7169 19.0144 28.4264L22.4528 25.7629C22.695 25.5693 22.8885 25.3271 23.0338 25.0366L23.6148 23.826L25.1646 27.5548C25.3098 27.894 25.3582 28.2328 25.4068 28.572L26.3752 44.1166C26.4235 45.0851 27.1984 45.86 28.2155 45.9569C29.2809 46.0052 30.201 45.2307 30.2494 44.1166L31.6053 29.9763C31.7022 28.9109 31.9928 27.8942 32.2832 26.8288C32.5741 25.908 32.3802 23.8738 31.9927 22.9054L31.9928 22.9055Z" fill="#65096F"/>
<path d="M14.705 28.9103C15.3346 28.9103 15.9639 28.6198 16.3513 28.0871C17.0293 27.1669 16.8841 25.8593 15.9639 25.1813L12.913 22.8084C12.913 22.8084 10.7822 18.3532 10.2495 17.2878C9.71677 16.2225 8.89355 15.3992 7.68291 15.0601C5.64902 14.4304 3.51829 15.5928 2.69505 17.5297L0.467286 22.905C0.0798361 23.8734 -0.162354 25.9073 0.12814 26.9243C0.418635 27.9414 0.709146 29.0065 0.806085 30.0718L2.1627 44.1638C2.211 45.2291 3.13113 46.0524 4.19659 45.9554C5.16502 45.9071 5.93992 45.0839 5.98826 44.1638L6.95669 28.6675C6.95669 28.3283 7.05363 27.9895 7.19888 27.6504L8.74868 23.9215L9.32969 25.1321C9.47494 25.4226 9.66883 25.6648 9.9107 25.8584L13.3491 28.5219C13.8332 28.7644 14.2693 28.9097 14.705 28.9097L14.705 28.9103Z" fill="#65096F"/>
<path d="M25.9884 10.6053C25.9884 12.9053 24.1239 14.7699 21.8238 14.7699C19.5237 14.7699 17.6592 12.9053 17.6592 10.6053C17.6592 8.30524 19.5237 6.44067 21.8238 6.44067C24.1239 6.44067 25.9884 8.30524 25.9884 10.6053Z" fill="#65096F"/>
<path d="M14.7531 10.6053C14.7531 12.9053 12.8885 14.7699 10.5884 14.7699C8.2884 14.7699 6.42383 12.9053 6.42383 10.6053C6.42383 8.30524 8.2884 6.44067 10.5884 6.44067C12.8885 6.44067 14.7531 8.30524 14.7531 10.6053Z" fill="#65096F"/>
</svg>
