<svg width="48" height="45" viewBox="0 0 48 45" fill="none" xmlns="http://www.w3.org/2000/svg">
<path d="M42.3879 5.96432C42.6565 5.71725 42.5805 5.49548 42.2167 5.46829L39.3603 5.25484C38.9965 5.22877 38.5707 5.47245 38.4102 5.79961L35.3425 12.0724C35.18 12.3973 35.2711 12.4645 35.5397 12.2197L42.3879 5.96432Z" fill="#65096F"/>
<path d="M26.8284 4.3188C26.4664 4.2916 26.3584 4.49976 26.5888 4.77932L32.3894 11.8299C32.6221 12.1114 32.7264 12.0551 32.6203 11.7075L30.6868 5.22888C30.5848 4.88018 30.2024 4.57228 29.8409 4.54547L26.8284 4.3188Z" fill="#65096F"/>
<path d="M37.4107 5.72435C37.569 5.39719 37.402 5.10818 37.0401 5.08098L32.1504 4.71604C31.7866 4.68884 31.5773 4.95216 31.6804 5.30086L33.7405 12.203C33.8444 12.5517 34.0601 12.5702 34.218 12.2442L37.4107 5.72435Z" fill="#65096F"/>
<path d="M33.5963 0.760394C33.8476 0.499344 33.761 0.264359 33.3968 0.238295L30.2427 0.00217769C29.8789 -0.0250231 29.7391 0.205808 29.9318 0.514461L31.0995 2.4026C31.2922 2.71239 31.6564 2.75131 31.9099 2.49025L33.5963 0.760394Z" fill="#65096F"/>
<path d="M39.5667 1.20421C39.8225 0.945422 39.7337 0.710437 39.3718 0.683241L35.9683 0.429745C35.6045 0.402544 35.4776 0.624681 35.6846 0.922762L37.0345 2.85404C37.2415 3.15287 37.6204 3.18649 37.8739 2.92544L39.5667 1.20421Z" fill="#65096F"/>
<path d="M26.6059 2.84784C26.3524 3.11002 26.4457 3.34728 26.8072 3.3741L30.1348 3.6223C30.4967 3.64837 30.6365 3.41867 30.4434 3.10889L29.1933 1.08883C29.0006 0.780175 28.6387 0.741257 28.3852 1.00231L26.6059 2.84784Z" fill="#65096F"/>
<path d="M42.3721 4.53763C42.734 4.5637 42.8583 4.3427 42.6472 4.04689L41.1134 1.88824C40.9022 1.5913 40.5187 1.55994 40.2652 1.81986L38.3869 3.73257C38.1334 3.99248 38.2199 4.22747 38.5818 4.25353L42.3721 4.53763Z" fill="#65096F"/>
<path d="M32.4351 3.28641C32.1816 3.54746 32.2681 3.78131 32.6323 3.80851L36.1235 4.06956C36.4854 4.09563 36.6119 3.87235 36.4049 3.57654L35.0086 1.57389C34.7996 1.27808 34.4203 1.24559 34.1668 1.50551L32.4351 3.28641Z" fill="#65096F"/>
<path d="M22.455 14.364L19.41 13.2257C20.6613 9.87956 23.0961 7.11113 26.2676 5.43188L27.7886 8.30235C25.3224 9.61098 23.4267 11.7633 22.4551 14.364H22.455Z" fill="#65096F"/>
<path d="M33.1118 32.973C32.748 32.973 32.3819 32.959 32.0136 32.9318C25.3388 32.4335 19.8654 27.4867 18.7048 20.9006L21.9059 20.3362C22.808 25.4575 27.063 29.3042 32.2542 29.6906C38.5074 30.1432 43.9701 25.4522 44.4363 19.2011C44.7094 15.5573 43.1949 11.9762 40.3853 9.62562L42.4714 7.1333C46.0807 10.1544 48.0271 14.7555 47.6784 19.443C47.1046 27.1129 40.6792 32.9723 33.1124 32.9733L33.1118 32.973Z" fill="#65096F"/>
<path d="M15.0574 44.469C6.75468 44.469 0 37.7141 0 29.4116C0 21.1079 6.75488 14.3542 15.0574 14.3542C22.1999 14.3542 28.4058 19.4291 29.8159 26.4193L26.6303 27.0627C25.5253 21.5817 20.6586 17.6043 15.0576 17.6043C8.5464 17.6043 3.24978 22.9014 3.24978 29.4121C3.24978 35.9233 8.54747 41.2199 15.0576 41.2199C20.2408 41.2199 24.8963 37.7549 26.375 32.7937L29.4891 33.722C27.601 40.0503 21.667 44.4698 15.0575 44.4698L15.0574 44.469Z" fill="#65096F"/>
</svg>
