<svg width="25" height="20" viewBox="0 0 25 20" fill="none" xmlns="http://www.w3.org/2000/svg">
<path d="M11.0901 13.8281H1.00488L12.8751 19.9988H22.9608L15.7076 16.2313L11.0901 13.8281Z" fill="#65096F"/>
<path d="M21.1243 16.4032L10.7646 11.0215L11.4937 13.2014L23.8454 19.6224L23.1164 17.4419L21.1243 16.4032Z" fill="#65096F"/>
<path d="M17.9389 6.4641L23.2084 9.20245L24.0326 6.73025L11.3986 0.155273L10.5742 2.6355L17.9389 6.4641Z" fill="#65096F"/>
<path d="M8.36816 3.19347V9.89719H10.1363C10.1904 9.89941 10.2433 9.91409 10.2908 9.94004L20.9167 15.4593V9.73404C20.9193 9.52805 21.0883 9.36289 21.2945 9.3651H21.8954L10.0247 3.19336L8.36816 3.19347Z" fill="#65096F"/>
<path d="M2.66934 10.6348H0.815345L0 13.0897H10.6687L9.85335 10.6348H7.99071C7.89274 10.6356 7.79839 10.597 7.72899 10.5276C7.65958 10.4582 7.62095 10.3638 7.62176 10.2659V2.81539C7.62096 2.71722 7.65958 2.62286 7.72899 2.55366C7.79839 2.48426 7.89274 2.44563 7.99071 2.44624H9.85335L10.6687 0H0L0.815345 2.44624H2.66934C2.87554 2.44403 3.04452 2.60919 3.04713 2.81539V10.2659C3.04452 10.4719 2.87554 10.637 2.66934 10.6348V10.6348Z" fill="#65096F"/>
</svg>
