<svg width="42" height="30" viewBox="0 0 42 30" fill="none" xmlns="http://www.w3.org/2000/svg">
<path d="M17.8335 16.4346C17.8335 16.4346 17.7691 17.7866 18.1554 18.3017C18.1554 18.3017 18.5417 18.8167 17.1253 19.3961C17.1253 19.3961 18.3486 20.2975 17.8335 20.6194C17.8335 20.6194 16.9966 21.1988 17.3828 22.4864C17.8335 23.8384 16.5459 24.5466 15.6446 24.5466C14.7432 24.5466 10.9447 25.126 10.9447 26.2205L10.9447 28.667C10.9447 29.0533 10.6228 29.4396 10.1722 29.4396L0 29.4396L0 0.596918C0.128762 0.532537 3.0259 0.275013 3.15466 0.275013C6.88875 -0.497557 10.3653 0.403775 13.0693 2.39958C14.4213 3.42968 15.387 5.0392 15.5158 6.7131C15.7089 8.77329 16.4815 12.1211 19.1211 14.6316C19.0567 14.6316 20.28 16.6918 17.8335 16.4342V16.4346Z" fill="#65096F"/>
<path d="M23.3693 16.4346C23.3693 16.4346 23.4337 17.7866 23.0474 18.3017C23.0474 18.3017 22.6611 18.8167 24.0775 19.3961C24.0775 19.3961 22.8542 20.2975 23.3693 20.6194C23.3693 20.6194 24.2062 21.1988 23.82 22.4864C23.3693 23.8384 24.6569 24.5466 25.5582 24.5466C26.4596 24.5466 30.258 25.126 30.258 26.2205L30.258 28.667C30.258 29.0533 30.5799 29.4396 31.0306 29.4396L41.2028 29.4396L41.2028 0.596918C41.074 0.532537 38.1769 0.275013 38.0481 0.275013C34.314 -0.497557 30.8375 0.403775 28.1335 2.39958C26.7815 3.42968 25.8158 5.0392 25.687 6.7131C25.4939 8.77329 24.7213 12.1211 22.0817 14.6316C22.1461 14.6316 20.9228 16.6918 23.3693 16.4342V16.4346Z" fill="#65096F"/>
</svg>
