<svg width="37" height="36" viewBox="0 0 37 36" fill="none" xmlns="http://www.w3.org/2000/svg">
<path d="M15.4114 0C6.91296 0 0 6.91565 0 15.4167C0 21.9982 3.82022 28.1801 9.76165 30.3864C10.2931 30.5729 10.8131 30.3579 11.2887 30.2459C12.6046 30.6114 13.9825 30.8335 15.4118 30.8335C17.0534 30.8335 18.6374 30.571 20.1222 30.0933C21.333 33.1613 24.3257 35.3339 27.8158 35.3339C32.3696 35.3339 36.0853 31.6288 36.0853 27.0731C36.0853 24.078 34.487 21.4408 32.0915 19.9876C32.4032 19.5177 32.9956 19.1129 33.4541 18.4249C32.7292 18.9084 32 19.2335 31.5747 19.7057C31.1843 19.5052 30.7761 19.3376 30.3531 19.2005C30.6591 17.9907 30.823 16.7207 30.823 15.417C30.823 6.91658 23.9094 0.000255029 15.4116 0.000255029L15.4114 0ZM26.4181 8.20172C27.7748 10.2723 28.5676 12.7498 28.5676 15.4161C28.5676 16.5918 28.4205 17.7281 28.1329 18.8118C28.027 18.8076 27.9226 18.8003 27.8156 18.8003C23.2618 18.8003 19.5461 22.5172 19.5461 27.0725C19.5461 27.3533 19.5537 27.633 19.5812 27.9068C18.2713 28.3428 16.8698 28.5765 15.4113 28.5765C13.8735 28.5728 12.7198 28.4128 11.4411 27.9655C8.20899 25.1495 7.02172 22.4707 6.84814 18.3187C11.5011 17.9395 15.7385 17.3582 19.2168 15.7806C22.45 14.3144 25.0004 11.8964 26.4171 8.2018L26.4181 8.20172ZM21.4256 16.1685C20.5953 16.1685 19.9222 16.8418 19.9222 17.6725C19.9222 18.5031 20.5953 19.1764 21.4256 19.1764C22.256 19.1764 22.929 18.5031 22.929 17.6725C22.929 16.8418 22.256 16.1685 21.4256 16.1685ZM11.6526 18.4244C10.8222 18.4244 10.1492 19.0977 10.1492 19.9284C10.1492 20.759 10.8222 21.4323 11.6526 21.4323C12.4829 21.4323 13.156 20.759 13.156 19.9284C13.156 19.0977 12.4829 18.4244 11.6526 18.4244ZM27.8157 21.0448C31.1506 21.0448 33.83 23.7368 33.83 27.0728C33.83 30.4087 31.1506 33.0889 27.8157 33.0889C24.4808 33.0889 21.8014 30.4087 21.8014 27.0728C21.8014 23.7369 24.4808 21.0448 27.8157 21.0448ZM18.7588 22.5488C18.4927 22.5637 18.2407 22.7318 18.1246 22.9717C18.1385 22.9442 17.7628 23.2567 17.2672 23.371C16.7717 23.4856 16.1898 23.414 16.1277 23.3826C15.774 23.204 15.29 23.3637 15.1117 23.7174C14.9333 24.0711 15.0928 24.5554 15.4465 24.7337C16.136 25.0788 16.87 25.0072 17.596 24.8394C18.3219 24.6718 19.074 24.4204 19.4636 23.6409C19.7011 23.1745 19.2816 22.5236 18.7588 22.5481L18.7588 22.5488ZM24.8085 22.5606C24.1858 22.5606 23.6808 23.0656 23.6808 23.6886C23.6808 24.3116 24.1858 24.8166 24.8085 24.8166C25.4313 24.8166 25.9363 24.3116 25.9363 23.6886C25.9363 23.0656 25.4313 22.5606 24.8085 22.5606ZM29.3191 23.6886C28.6964 23.6886 28.1914 24.1936 28.1914 24.8166C28.1914 25.4396 28.6964 25.9446 29.3191 25.9446C29.9419 25.9446 30.4468 25.4396 30.4468 24.8166C30.4468 24.1936 29.9419 23.6886 29.3191 23.6886ZM22.9291 25.9445C22.5531 27.4485 22.9291 29.7047 24.8085 30.4567C26.688 31.2087 28.5674 30.0807 29.6951 28.5767L22.9291 25.9445Z" fill="#73207C"/>
</svg>
