<svg width="58" height="56" viewBox="0 0 58 56" fill="none" xmlns="http://www.w3.org/2000/svg">
<path fill-rule="evenodd" clip-rule="evenodd" d="M37.8887 47.19C40.1769 47.19 42.0349 49.0479 42.0349 51.3363C42.0349 53.6246 40.177 55.4821 37.8887 55.4821C35.6 55.4821 33.742 53.6245 33.742 51.3363C33.742 49.048 35.5999 47.19 37.8887 47.19ZM46.5651 33.0462C54.277 38.6394 58.8662 43.3251 57.8601 45.0658C56.3148 47.7419 42.1276 42.448 26.1994 33.2518C10.27 24.0552 -1.40757 14.4155 0.137201 11.7404C1.09925 10.0731 6.96775 11.4986 15.1067 15.0341C14.4551 15.775 13.8612 16.5687 13.3329 17.407C11.7034 17.0493 10.6369 17.0974 10.3316 17.6256C9.33221 19.3565 16.8855 25.5913 27.1878 31.5396C37.4916 37.4881 46.6674 40.9118 47.6657 39.181C48.0398 38.5334 47.2173 37.2561 45.501 35.5991C45.9159 34.7814 46.2733 33.9289 46.5645 33.0471L46.5651 33.0462ZM11.4146 24.6318C11.2892 25.483 11.2243 26.3544 11.2243 27.2405C11.2243 37.0512 19.1891 45.0159 28.9997 45.0159C33.1279 45.0159 36.9306 43.605 39.949 41.2398C35.6344 39.247 30.8203 36.7521 25.8394 33.8758C20.4278 30.7513 15.5042 27.574 11.4141 24.6315L11.4146 24.6318ZM12.624 20.3185C15.3444 23.0814 20.8641 27.0541 27.5495 30.9139C33.5683 34.3885 39.1942 36.9993 42.994 38.1966C45.3631 35.1765 46.7748 31.3721 46.7748 27.2405C46.7748 17.4298 38.81 9.46513 28.9994 9.46513C21.6432 9.46513 15.3251 13.943 12.6237 20.3187L12.624 20.3185ZM14.8381 0C17.1268 0 18.9848 1.85758 18.9848 4.14583C18.9848 6.43407 17.1269 8.29209 14.8381 8.29209C12.5498 8.29209 10.6931 6.43418 10.6931 4.14583C10.6931 1.85747 12.5498 0 14.8381 0Z" fill="#65096F"/>
</svg>
