<svg width="20" height="31" viewBox="0 0 20 31" fill="none" xmlns="http://www.w3.org/2000/svg">
<path d="M7.58471 0.559773C10.5067 -0.244196 13.2761 -0.200777 15.7998 0.811091C18.539 1.91504 20 3.83198 20 6.49492C20 7.98433 19.5274 9.39204 18.6054 10.6933C17.7044 11.9603 16.6443 13.0524 15.4393 13.9669C14.2747 14.8484 12.6961 15.922 10.7636 17.1431C8.95 18.2891 7.76702 19.2825 7.14427 20.1613C6.53574 21.0205 6.23564 21.8216 6.23564 22.573C6.23564 23.773 5.84919 24.3151 5.09182 24.1978C4.69882 24.1373 4.43366 23.9624 4.29136 23.6703C4.14906 23.3809 4.07846 22.765 4.07846 21.8217C4.07846 20.8783 4.35125 19.9415 4.90494 18.9981C5.47022 18.0376 6.65052 16.818 8.52687 15.2825C10.5886 13.5788 11.9779 12.0629 12.5901 10.8131C13.2155 9.53692 13.5315 8.26336 13.5315 7.01472C13.5315 5.51471 12.9479 4.28457 11.8185 3.35046C10.7256 2.45046 9.34938 2.21369 7.72663 2.59916C5.87658 3.0399 4.50166 3.78329 3.53948 4.81873C2.6125 5.8174 2.16199 6.91983 2.16199 8.15392C2.16199 8.83541 2.3174 9.39596 2.63194 9.84598C2.94954 10.301 3.36593 10.5037 3.88705 10.4484C4.05689 10.4299 4.21078 10.3905 4.34542 10.3312C4.48247 10.2707 4.62477 10.2312 4.76838 10.2167C5.10652 10.1799 5.45385 10.2601 5.80643 10.4561C6.16797 10.6577 6.34961 10.913 6.34961 11.2275C6.34961 11.7841 6.06764 12.2418 5.5074 12.5932C4.96291 12.9379 4.32576 13.1286 3.60772 13.1667C2.59959 13.222 1.74715 12.8551 1.0328 12.0879C0.340778 11.3392 0 10.2379 0 8.76694C0 7.09867 0.604615 5.53438 1.86186 4.01458C3.18317 2.41482 5.05439 1.25582 7.58471 0.559773ZM5.6341 26.6569C6.24001 26.7767 6.81183 27.095 7.34191 27.6161C7.88115 28.1503 8.15659 28.7844 8.15659 29.5159C8.15659 30.0778 7.89538 30.4934 7.38108 30.7659C6.87572 31.0291 6.29602 31.0698 5.64574 30.8908C5.00464 30.7146 4.44703 30.3527 3.96921 29.8146C3.49795 29.2817 3.26667 28.7463 3.26667 28.1937C3.26667 27.6291 3.48985 27.2029 3.9456 26.9095C4.4055 26.6135 4.96564 26.5254 5.6341 26.6569Z" fill="#73207C"/>
</svg>
