<svg width="48" height="48" viewBox="0 0 48 48" fill="none" xmlns="http://www.w3.org/2000/svg">
<path d="M40.3603 8.75716C42.2866 8.75716 43.8483 5.41431 43.8483 3.48797C43.8483 1.56162 42.2866 0 40.3603 0C38.4339 0 36.8723 1.56162 36.8723 3.48797C36.8723 5.41431 38.4339 8.75716 40.3603 8.75716Z" fill="#65096F"/>
<path d="M43.1201 9.5354L41.3197 12.3435L41.18 9.9677H39.5419L39.4023 12.3435L37.6019 9.5354C37.6019 9.5354 35.2309 10.3676 35.0277 10.4315C31.2327 11.6212 32.9613 26.6859 34.4773 25.385V45.2526C34.4773 46.4652 35.4604 47.4484 36.673 47.4484H36.7782C37.9359 47.4484 38.8944 46.5512 38.9702 45.396L39.8588 31.8324H40.8631L41.7517 45.396C41.8275 46.5512 42.7857 47.4484 43.9437 47.4484H44.0489C45.2615 47.4484 46.2446 46.4652 46.2446 45.2526V25.4034C46.2446 25.3966 46.2494 25.3945 46.2549 25.3986C47.8199 26.5727 49.4766 11.6174 45.6941 10.4319C45.4913 10.3688 43.12 9.53621 43.12 9.53621L43.1201 9.5354Z" fill="#65096F"/>
<path d="M0 34.5964H4.4059V47.4475H0V34.5964Z" fill="#65096F"/>
<path d="M11.505 30.3127H15.9109V47.4475H11.505V30.3127Z" fill="#65096F"/>
<path d="M23.0096 22.1128H27.4155V47.4477H23.0096V22.1128Z" fill="#65096F"/>
<path d="M27.322 10.016C27.3193 9.83334 27.1318 9.71176 26.9638 9.78417L21.2482 12.2422C21.0594 12.3235 21.0379 12.5827 21.2107 12.694L22.12 13.2804C20.9662 15.1613 19.7367 17.0275 18.2219 18.6763C17.4658 19.6072 16.5766 20.4115 15.728 21.2679C15.2864 21.6764 14.819 22.0568 14.364 22.455C13.915 22.8613 13.4352 23.2295 12.9468 23.5884C11.0246 25.0667 8.94282 26.3681 6.74529 27.4622C4.77488 28.4518 2.67675 29.3087 0.574859 29.9121C0.189311 30.0227 -0.0545094 30.398 0.0110572 30.7938C0.0820877 31.2227 0.491197 31.5205 0.91981 31.4471C3.25048 31.0469 5.46751 30.4025 7.6667 29.5897C10.1022 28.6919 12.4629 27.5564 14.7059 26.1939C15.2738 25.864 15.8359 25.5222 16.3704 25.1376C16.9103 24.7617 17.4642 24.4007 17.9952 24.008C19.0234 23.1816 20.0981 22.3948 21.0481 21.4632C22.9383 19.8032 24.5608 17.8615 26.108 15.8518L27.0199 16.4398C27.1923 16.5511 27.4191 16.4251 27.416 16.2202L27.322 10.016Z" fill="#65096F"/>
</svg>
