<svg width="46" height="41" viewBox="0 0 46 41" fill="none" xmlns="http://www.w3.org/2000/svg">
<path fill-rule="evenodd" clip-rule="evenodd" d="M42.9862 15.6721C43.6639 15.5814 44.2221 15.7373 44.6613 16.1389C45.0641 16.5417 45.2378 17.0821 45.1828 17.7591C45.1093 18.5268 44.8168 19.1764 44.3044 19.7077L33.1285 31.566L17.2289 31.621L15.1692 33.7205L15.3888 33.9539V33.9816L16.8443 35.4907L11.5715 40.4859L9.183 37.9612H9.15533L0.807617 29.2056L6.05231 24.2104V24.2381L7.01337 25.2118C7.78722 24.3134 8.54647 23.5498 9.29265 22.9198L10.3913 22.0694C11.3614 21.4107 12.3043 20.9347 13.2194 20.642C15.1236 20.0568 17.0365 20.1751 18.9586 20.9988L19.3704 21.2181L30.8214 21.2173C31.2798 21.2173 31.7096 21.3091 32.1124 21.4926L32.1943 21.5192C32.396 21.611 32.5971 21.7669 32.7988 21.9861C33.1098 22.2421 33.348 22.5542 33.5126 22.9191C33.5861 23.1208 33.6225 23.3768 33.6225 23.6878C33.6225 24.3466 33.3476 24.9143 32.7988 25.3896C32.2861 25.9023 31.6266 26.1583 30.821 26.1583L24.0112 26.1307V27.8601L30.821 27.8867C32.0475 27.8867 33.1098 27.4941 34.0071 26.7068C34.904 25.8656 35.352 24.8583 35.352 23.6875C35.352 23.3765 35.325 23.0837 35.27 22.8084L41.0919 16.7159C41.3115 16.4588 41.5952 16.2305 41.9429 16.0298C42.3093 15.847 42.6571 15.7287 42.9862 15.6726L42.9862 15.6721ZM6.54608 8.12444L26.9215 8.12444L26.9215 19.4877L19.8098 19.4881L19.6998 19.4342C17.3382 18.3912 14.9952 18.2441 12.6704 18.9946C11.6817 19.3056 10.6569 19.8093 9.59505 20.5048L6.54666 20.5048L6.54608 8.12444ZM32.6055 0L27.3885 6.39547L7.45214 6.39547L12.5049 0L32.6055 0ZM34.6379 0.274214L40.6794 5.90057L40.6794 14.7941C40.3502 15.0326 40.0661 15.261 39.828 15.4802L37.5767 17.7868L37.6044 12.3243L32.634 12.3243L32.579 19.5151L28.6523 19.4874L28.6519 7.54801L34.6379 0.274214ZM15.0586 11.5834L15.0586 15.9475L19.4522 15.9475L19.4522 11.5834L15.0586 11.5834Z" fill="#65096F"/>
</svg>
