<svg width="35" height="35" viewBox="0 0 35 35" fill="none" xmlns="http://www.w3.org/2000/svg">
<path d="M16.5492 35C25.6891 35 33.0984 27.5026 33.0984 18.2541C33.0984 9.00558 25.6891 1.50818 16.5492 1.50818C7.40933 1.50818 0 9.00558 0 18.2541C0 27.5026 7.40933 35 16.5492 35Z" fill="url(#paint0_radial_57_126)"/>
<path d="M18.2966 29.1233C25.0522 29.1233 30.5287 23.5818 30.5287 16.7459C30.5287 9.91006 25.0522 4.3685 18.2966 4.3685C11.5411 4.3685 6.06464 9.91006 6.06464 16.7459C6.06464 23.5818 11.5411 29.1233 18.2966 29.1233Z" fill="white"/>
<path d="M2.46694 13.1575C3.08368 13.3135 3.70042 12.9495 3.906 12.3254C4.06019 11.8053 3.85461 11.3373 3.44345 11.0773C5.75622 4.88856 11.718 0.676077 18.348 0.676077C24.978 0.676077 30.9398 4.88856 33.2526 11.0773C32.8414 11.3373 32.6358 11.8574 32.79 12.3254C32.9442 12.9495 33.6123 13.3135 34.2291 13.1575C34.8458 13.0015 35.2056 12.3254 35.0514 11.7013C34.8972 11.1293 34.3833 10.8172 33.8693 10.8172C31.4023 4.4205 25.1835 0 18.2966 0C11.4097 0 5.24227 4.4205 2.82671 10.8172C2.31276 10.7652 1.79881 11.1293 1.64462 11.7013C1.49044 12.3254 1.8502 12.9495 2.46694 13.1575Z" fill="url(#paint1_linear_57_126)"/>
<path d="M34.1263 20.4383C33.5095 20.2823 32.8928 20.6464 32.6872 21.2704C32.533 21.7905 32.7386 22.2585 33.1498 22.5706C30.7856 28.7593 24.978 32.8677 18.2966 32.8677C11.6153 32.8677 5.80762 28.7593 3.44345 22.5706C3.85461 22.3105 4.06019 21.7905 3.906 21.2704C3.75182 20.6464 3.08368 20.2823 2.46694 20.4383C1.8502 20.5944 1.49044 21.2704 1.64462 21.8945C1.79881 22.4146 2.31276 22.7786 2.82671 22.7786C5.29367 29.2273 11.3069 33.4918 18.2452 33.4918C25.1835 33.4918 31.2482 29.2273 33.6637 22.7786C34.1777 22.8306 34.6916 22.4666 34.8458 21.8945C35.1028 21.2704 34.743 20.6464 34.1263 20.4383Z" fill="url(#paint2_linear_57_126)"/>
<defs>
<radialGradient id="paint0_radial_57_126" cx="0" cy="0" r="1" gradientUnits="userSpaceOnUse" gradientTransform="translate(16.5483 18.2604) scale(16.5483 16.745)">
<stop offset="0.5314" stop-color="#FB272F"/>
<stop offset="0.5864" stop-color="#FF474E"/>
<stop offset="0.6453" stop-color="#FF7277"/>
<stop offset="0.7051" stop-color="#FF8285"/>
<stop offset="0.7052" stop-color="#99CAFF"/>
<stop offset="0.7053" stop-color="#FF8689"/>
<stop offset="0.7649" stop-color="#F6A3A6"/>
<stop offset="0.8243" stop-color="#FFD2D4"/>
<stop offset="0.8834" stop-color="#FFE4E5"/>
<stop offset="0.9421" stop-color="#FBFDFF"/>
<stop offset="1" stop-color="white"/>
</radialGradient>
<linearGradient id="paint1_linear_57_126" x1="5.16097" y1="28.745" x2="25.9357" y2="2.59903" gradientUnits="userSpaceOnUse">
<stop stop-color="#CD0000"/>
<stop offset="1" stop-color="#FF2A33"/>
</linearGradient>
<linearGradient id="paint2_linear_57_126" x1="9.95725" y1="32.556" x2="30.7319" y2="6.41002" gradientUnits="userSpaceOnUse">
<stop stop-color="#CD0000"/>
<stop offset="1" stop-color="#FF2A33"/>
</linearGradient>
</defs>
</svg>
