<svg width="52" height="59" viewBox="0 0 52 59" fill="none" xmlns="http://www.w3.org/2000/svg">
<path fill-rule="evenodd" clip-rule="evenodd" d="M49.3159 52.716C46.5118 55.3744 43.2727 56.9459 39.5986 57.4289C38.4389 57.8158 37.23 58.0095 35.9737 58.0095C34.5716 58.0095 33.3395 57.7673 32.2758 57.2842C31.2121 57.043 30.6562 56.8973 30.6077 56.8492C29.9309 56.608 29.4959 56.2934 29.3027 55.9065C29.5931 55.7618 29.7625 55.1569 29.8106 54.0942C29.8591 53.5621 30.1975 53.2718 30.8252 53.2243C31.1645 53.1752 31.7922 52.982 32.7112 52.6436C33.6292 52.3052 34.2817 52.1606 34.6691 52.2086C35.2487 52.4989 36.143 52.8373 37.3524 53.2243C37.5451 53.1752 37.6179 53.0548 37.5698 52.8611C37.5213 52.4747 37.497 52.3052 37.497 52.3543C38.6087 51.8227 39.8171 51.5562 41.1225 51.5562C42.0415 51.5562 42.9358 51.7018 43.8058 51.9911C43.4674 52.0402 42.5246 52.2086 40.9779 52.4989C39.9142 52.6927 39.0442 53.031 38.3675 53.5141C38.0772 54.0947 38.8268 54.384 40.6157 54.384C43.1295 54.384 45.8603 53.7073 48.809 52.3543C49.0027 52.3543 49.1711 52.4751 49.3168 52.7164L49.3159 52.716Z" fill="#65096F"/>
<path fill-rule="evenodd" clip-rule="evenodd" d="M43.5888 35.0237C42.5252 35.4106 41.0022 36.0873 39.0206 37.0545C37.7157 37.1511 36.3136 36.885 34.815 36.2573C34.2829 36.0151 33.0508 35.3874 31.1171 34.3713C29.3768 34.517 27.8063 35.1209 26.4042 36.1846C26.3552 36.6676 26.5009 36.9579 26.8392 37.0545C27.0329 37.1026 27.4431 37.1026 28.0718 37.0545C28.6039 37.0055 28.9661 37.0545 29.1593 37.1992C30.2229 37.3449 32.1809 38.7949 35.0324 41.5501C35.564 41.2607 36.1442 41.1151 36.7728 41.1151C37.7399 41.1151 38.5132 41.3816 39.0939 41.9132C39.2866 42.0093 39.4561 42.2268 39.6007 42.5657C38.489 42.3234 37.4496 42.2991 36.4836 42.4928C35.1786 42.7341 34.5252 43.3871 34.5252 44.4508C34.5252 44.9823 34.9849 45.5862 35.903 46.264C36.1442 46.3601 36.5074 46.4815 36.9904 46.6262C36.652 46.7708 36.3379 46.8437 36.0481 46.8437C35.6612 46.8437 35.0082 46.5412 34.0897 45.9378C33.1717 45.3334 32.4712 45.1037 31.9872 45.2484C30.1501 45.829 28.3617 46.1184 26.6217 46.1184C24.5909 46.1184 22.8267 45.78 21.3281 45.1038C21.1344 45.0547 20.9659 45.0309 20.8203 45.0309C20.2892 45.0309 19.9503 45.345 19.8052 45.9737C20.1435 47.3267 20.361 48.1001 20.4576 48.2938C20.796 49.2128 21.2548 49.8404 21.8355 50.1798C22.2704 50.5662 23.4787 50.9532 25.4604 51.3396C27.0562 51.6779 27.95 52.2586 28.1437 53.0799C28.2884 53.7086 28.433 54.3131 28.5787 54.8932C28.1917 56.1015 27.0801 56.7783 25.243 56.924C24.0346 56.875 22.8622 56.3681 21.7267 55.401C20.5902 54.434 19.7572 53.3702 19.2251 52.2099C19.4189 51.1953 19.5145 50.6395 19.5145 50.5424C18.3547 50.0103 17.5813 48.7782 17.1944 46.8445C17.1944 46.6032 17.3269 46.2036 17.5935 45.6483C17.859 45.0924 17.9915 44.6933 17.9915 44.4521C17.9915 44.0171 17.726 43.6787 17.1944 43.437L17.1216 43.5816C17.0735 43.485 16.9041 43.5088 16.6148 43.6545C16.3244 44.3312 15.9016 45.3099 15.3457 46.5911C14.7899 47.8713 13.884 48.3912 12.6266 48.1499C11.9499 48.7296 10.9834 49.6729 9.72595 50.9778C9.82256 51.2682 10.1979 51.5818 10.8503 51.9206C11.5028 52.259 11.8533 52.6449 11.9014 53.0804C12.2407 53.3707 12.6995 53.8538 13.2792 54.531C13.0855 54.6276 12.868 54.6756 12.6267 54.6756C12.1437 54.6756 11.515 54.4581 10.7416 54.0232C8.75894 52.3308 7.86461 50.8812 8.05832 49.6723C8.63795 48.8023 9.992 47.9562 12.1187 47.1347C12.1678 46.989 12.3362 46.4575 12.6266 45.5395C12.8203 44.8627 13.2062 44.4521 13.7868 44.3069C14.2699 43.8719 14.4874 43.485 14.4393 43.1466C13.9077 42.7597 13.4722 42.567 13.1344 42.567C12.9887 42.567 12.8678 42.5908 12.7712 42.6388C12.4329 42.8325 12.1188 43.2913 11.829 44.0166C11.5386 44.7419 11.1765 45.1769 10.7415 45.3221C9.96815 45.273 8.17919 45.8779 5.37512 47.1353C5.03675 47.5218 4.91586 48.1014 5.01297 48.8757C5.15763 49.8903 5.20669 50.4942 5.15763 50.6879C4.43333 50.4462 3.87748 49.7209 3.49003 48.5125C3.58664 48.2232 3.93715 47.7629 4.54157 47.1352C5.14548 46.5065 5.42366 45.9506 5.37511 45.4671C5.56883 45.2734 6.12469 45.0321 7.04323 44.7428C7.96123 44.4525 8.51712 44.0175 8.71083 43.4373C10.4988 42.8086 11.6353 41.9624 12.1183 40.8988C11.829 40.6576 11.4658 40.5367 11.0308 40.5367C11.3212 40.5367 10.4512 40.7056 8.42048 41.0445C7.1641 41.6242 5.25425 42.5426 2.69296 43.7995C2.20892 44.1859 1.79822 45.4191 1.45986 47.4974H1.17054C1.07394 47.3527 0.807383 46.9415 0.372401 46.2648C0.0830862 45.7807 -0.037799 45.2977 0.0102518 44.8142C0.300577 44.7176 0.589891 44.2103 0.880216 43.2912C1.17054 42.3732 1.65357 41.9139 2.33029 41.9139C3.63521 41.2367 5.666 40.439 8.42099 39.5211C8.75937 39.1342 8.88076 38.8686 8.78415 38.723C6.27039 36.6932 4.96547 33.5022 4.86887 29.1514C4.91692 28.7649 4.81981 28.2086 4.57855 27.4838C4.33678 26.7585 4.2164 26.2507 4.2164 25.9608C4.2164 25.5258 4.36106 25.1146 4.65138 24.7277C4.65138 24.1966 4.46981 23.3864 4.10766 22.2989C3.7445 21.2114 3.56394 20.4259 3.56394 19.9419C3.56394 19.1205 3.95037 18.4189 4.72371 17.8394C5.44902 16.8248 6.41604 16.3164 7.62437 16.3164C8.68804 16.3164 9.43764 16.8242 9.87257 17.8394C10.4042 19.1443 10.5731 20.0876 10.3794 20.6673C10.1867 21.0056 10.0901 21.344 10.0901 21.6819C10.0901 22.1169 10.3794 22.8184 10.96 23.7854C11.5397 24.7525 11.8543 25.4767 11.9023 25.9609C11.661 27.1692 12.2164 28.16 13.5704 28.9334C15.2617 29.8524 16.2288 30.5766 16.4702 31.1088C16.4702 31.2054 16.2046 31.3991 15.6731 31.6895L13.4976 32.1245C12.6762 32.4138 12.1447 32.9216 11.9019 33.6474C11.8538 33.9367 11.6844 34.3242 11.3951 34.8072C9.99305 34.5659 8.92935 34.9766 8.20399 36.0403C8.20399 36.2816 8.22878 36.4024 8.27683 36.4024C9.00214 36.2087 10.4042 35.9184 12.4829 35.5325C12.6276 35.4839 13.0868 34.88 13.8602 33.7192C14.4409 32.8978 15.0448 32.4866 15.6735 32.4866H16.9061C17.3901 32.5347 17.7042 32.7041 17.8489 32.9944C17.4139 33.2837 16.7852 33.8396 15.9638 34.662C15.8181 35.2907 15.6972 35.9184 15.6006 36.5472C15.3588 37.2725 14.9729 37.7074 14.4408 37.8521C14.2952 37.9011 13.885 38.0696 13.2077 38.3599C12.7247 38.5536 12.4592 38.892 12.4106 39.375C12.6043 39.5687 12.8218 39.6653 13.0631 39.6653C13.3043 39.6653 13.7277 39.46 14.3321 39.0488C14.936 38.6376 15.2622 38.4332 15.3108 38.4332C15.7938 38.4332 16.4706 38.2395 17.3406 37.8526C17.3406 37.7079 17.2081 37.3933 16.9425 36.9103C16.676 36.4263 16.592 36.0156 16.6881 35.6772C17.1721 35.0976 17.8484 34.6626 18.7189 34.3723L20.8943 33.648L21.5468 33.8655C21.6915 33.4785 22.2236 32.9227 23.142 32.1973C23.9154 31.5686 24.3266 30.941 24.3746 30.3122C25.0999 29.5389 25.8976 29.1519 26.7675 29.1519C27.0578 29.1519 27.3471 29.201 27.6374 29.2976L27.7821 29.1519L27.9277 29.2976C28.5074 29.2976 29.3536 29.1762 30.4653 28.9345C31.5771 28.6932 32.4232 28.5723 33.0029 28.5723C33.97 28.5723 34.7682 28.8136 35.3968 29.2976L35.0336 29.6598C34.6953 29.6112 34.3569 29.5869 34.0185 29.5869C33.1486 29.5869 32.133 29.8535 30.9731 30.3851C29.4264 31.1099 28.4593 31.5206 28.0724 31.6177C27.4928 32.0041 26.7675 32.2464 25.897 32.343C25.7524 32.4391 25.2203 32.9469 24.3018 33.8659C23.6741 34.4936 23.0454 34.8082 22.4167 34.8082C21.8851 35.5335 21.1841 36.669 20.3141 38.2167L20.4588 38.7964C20.6034 39.1828 19.9995 39.7391 18.6455 40.464C17.9207 40.8509 17.4858 41.3339 17.3401 41.9145C17.5338 42.1073 17.727 42.2039 17.9207 42.2039C18.1625 42.2039 18.5004 41.9985 18.9358 41.5883C19.3708 41.1771 19.6854 40.9475 19.8786 40.8989C20.4107 40.7543 21.087 40.3673 21.9084 39.7392C21.57 39.2551 21.4016 38.7964 21.4016 38.3613C21.4016 38.023 21.5225 37.7089 21.7637 37.4185C22.005 37.1292 22.4405 36.669 23.0687 36.0412C23.6974 35.4125 24.3013 35.1222 24.8819 35.1713C25.849 34.446 26.8156 33.7207 27.7817 32.9959C29.0391 32.1739 30.1508 31.8356 31.1174 31.9802C31.3592 32.8502 31.7699 33.2857 32.35 33.2857C33.0273 33.2857 33.3656 33.0682 33.3656 32.6332C33.3656 32.5366 33.3287 32.3798 33.2569 32.1623C33.184 31.9448 33.1481 31.787 33.1481 31.6914C33.1481 31.4977 33.3171 31.3773 33.6549 31.3283C38.683 31.522 41.9939 32.7541 43.5897 35.0261L43.5888 35.0237Z" fill="#65096F"/>
<path fill-rule="evenodd" clip-rule="evenodd" d="M25.0976 25.0896C24.8563 25.2834 24.3242 25.3673 23.5018 25.343C22.6804 25.3193 22.1489 25.428 21.9066 25.6693C21.8586 25.7178 21.3027 26.0805 20.239 26.7567C19.4657 27.2408 19.0787 27.6509 19.0787 27.9893C19.0787 28.2796 19.2244 28.5937 19.5137 28.9321C19.4657 29.8511 19.0069 30.5754 18.1364 31.1075C18.1845 30.9138 18.2083 30.7454 18.2083 30.6007C18.2083 30.2613 18.0757 29.7905 17.8102 29.1865C17.5436 28.5821 17.4111 28.135 17.4111 27.8447C17.4111 27.5063 17.5558 27.1922 17.8461 26.9019C18.233 26.7573 19.1273 26.2494 20.5294 25.3789C21.6411 24.6541 22.5353 24.2915 23.2116 24.2915C23.8888 24.2915 24.517 24.5581 25.0976 25.0896H25.0976Z" fill="#65096F"/>
<path fill-rule="evenodd" clip-rule="evenodd" d="M30.6072 26.3946C30.5111 26.5883 30.2207 26.7451 29.7372 26.8655C29.2542 26.9864 28.9886 27.0708 28.9401 27.1189L28.7954 26.9742C26.9099 27.2646 24.7101 28.3282 22.1969 30.1653C22.0032 30.9387 21.8585 31.4708 21.7619 31.76C21.4716 32.2921 21.0614 32.6062 20.5293 32.7028C20.1909 32.7028 20.0215 32.63 20.0215 32.4853C20.0215 32.0984 20.288 31.5542 20.8186 30.8536C21.3502 30.152 21.6167 29.6331 21.6167 29.2947C21.6167 29.0525 21.5439 28.8107 21.3993 28.5694L21.9061 28.0616C22.3901 27.965 23.5256 27.5538 25.3145 26.829C26.7646 26.2003 27.8521 25.8862 28.5774 25.8862C29.2541 25.8862 29.9303 26.0557 30.6071 26.394L30.6072 26.3946Z" fill="#65096F"/>
<path fill-rule="evenodd" clip-rule="evenodd" d="M47.1422 44.9575C47.0455 45.0536 46.9247 45.1022 46.779 45.1022C46.4897 45.1022 46.0547 44.9813 45.4736 44.74C44.2652 43.386 43.6855 42.4432 43.7332 41.9121C43.9269 41.5727 44.1924 41.4043 44.5313 41.4043C45.2081 41.4043 45.6911 41.7427 45.9814 42.4194L47.1417 44.9579L47.1422 44.9575Z" fill="#65096F"/>
<path fill-rule="evenodd" clip-rule="evenodd" d="M51.9265 42.4916C51.9265 43.5553 51.6842 44.4976 51.2011 45.3195C50.6215 45.8511 49.9928 46.2375 49.316 46.4798C49.4121 44.5943 48.1315 42.7328 45.4725 40.8959C45.2788 40.8478 44.82 40.6784 44.0952 40.3891L43.9495 40.5337C43.9014 40.4847 43.684 40.4371 43.297 40.3891L43.2252 40.5337L43.0795 40.3891C42.9829 40.4852 42.8383 40.5337 42.6446 40.5337C42.4508 40.5337 42.3062 40.4847 42.2096 40.3891C41.7746 40.0988 41.3882 39.422 41.0498 38.3583C41.1945 37.4393 41.6537 36.7631 42.4271 36.3275C43.1039 36.0857 43.8049 35.9653 44.5307 35.9653C47.0444 35.9653 49.2674 37.1737 51.2016 39.5908C51.6846 40.4608 51.9269 41.4279 51.9269 42.4915L51.9265 42.4916Z" fill="#65096F"/>
<path fill-rule="evenodd" clip-rule="evenodd" d="M39.383 6.16425C39.5287 6.64729 39.2864 7.2517 38.6587 7.97649C38.03 8.70179 37.7159 9.23387 37.7159 9.57222C37.764 11.4093 37.2081 12.5938 36.0483 13.1253C35.274 13.3191 33.9939 13.8021 32.2048 14.5754C30.6091 15.3007 29.3289 15.6629 28.3618 15.6629C27.5884 15.6629 26.8388 15.4939 26.1136 15.155C25.2922 15.0104 24.2528 15.1798 22.9954 15.6629C21.5944 16.2425 20.6273 16.5328 20.0956 16.5328C19.4189 16.5328 18.7907 16.3391 18.2101 15.9532C17.3887 15.7595 16.2522 16.0741 14.8027 16.8955C13.3526 17.7174 12.2414 18.032 11.4669 17.8382C11.032 16.9683 10.8145 16.509 10.8145 16.4604C10.4761 15.9293 10.1139 15.5905 9.72703 15.4453L8.71191 15.0103C10.2105 13.6574 12.1194 12.9795 14.4405 12.9795C15.0692 12.9795 15.6968 13.0286 16.3256 13.1252C16.5669 13.2218 16.9052 13.5723 17.3402 14.1762C17.7752 14.7807 18.1383 15.0831 18.4276 15.0831C18.6699 15.0831 18.9117 15.034 19.153 14.9374C19.637 14.5025 19.8783 14.2369 19.8783 14.1403C19.2976 13.9957 18.6209 13.6082 17.8475 12.9801C18.7174 12.497 20.385 12.4242 22.8508 12.7626C25.1708 13.1019 26.8151 12.8354 27.7812 11.9654C28.1681 11.8208 28.5556 11.7479 28.9415 11.7479C29.4255 11.7479 30.1498 11.9417 31.1169 12.3276C32.084 12.7145 32.8092 12.9082 33.2923 12.9082L33.5098 12.6179C32.8811 12.0383 32.567 11.579 32.567 11.2401C32.567 11.0474 32.6399 10.8779 32.7845 10.7333C33.4132 9.42837 34.7672 8.5822 36.8455 8.19479C37.0872 8.00208 37.2076 7.80836 37.2076 7.61515C37.2076 7.47049 37.1596 7.34961 37.063 7.253L36.5552 6.88984L36.4833 7.03551L36.3377 6.88984L35.3954 7.68799C35.1051 7.54232 34.8147 7.05929 34.5244 6.2374C34.5244 4.98102 34.9842 4.08683 35.9022 3.55518C37.7393 3.69983 38.8995 4.56979 39.3826 6.16554L39.383 6.16425Z" fill="#65096F"/>
<path fill-rule="evenodd" clip-rule="evenodd" d="M26.6211 3.69895C26.6211 3.89267 26.5973 4.11016 26.5482 4.35143C25.7268 5.4151 24.1554 6.11562 21.8353 6.45396C19.1759 6.84089 17.5088 7.27638 16.832 7.75888C17.1704 6.74427 17.3388 5.85005 17.3388 5.07666C17.3388 4.44796 17.218 3.91638 16.9767 3.48144C17.9438 1.93477 19.0075 1.08861 20.1667 0.943848H22.1246C22.8499 0.991897 23.4296 1.18511 23.865 1.52349C23.817 1.57154 23.6232 1.74098 23.2854 2.0313C22.947 2.32062 22.8023 2.58717 22.8504 2.82842C23.0922 3.02214 23.43 3.11875 23.8655 3.11875C24.0592 3.11875 24.3733 3.08182 24.8083 3.01C25.2433 2.93717 25.5579 2.90126 25.7511 2.90126C26.3307 2.90126 26.621 3.1668 26.621 3.69837L26.6211 3.69895Z" fill="#65096F"/>
<path fill-rule="evenodd" clip-rule="evenodd" d="M35.3949 1.95843C35.3458 2.15215 35.0686 2.32058 34.5608 2.46625C34.053 2.6109 33.7996 2.78034 33.7996 2.97305C33.7996 3.11872 33.8714 3.31143 34.0171 3.5537C33.8234 3.69836 33.5578 3.72264 33.219 3.62552C32.7359 3.52892 32.4456 3.48087 32.349 3.48087C30.8509 3.2391 28.6511 2.63468 25.751 1.6676C27.8298 0.555879 29.7386 0 31.4785 0C32.0106 0 32.5184 0.0480494 33.0015 0.144657C34.1617 0.725307 34.9599 1.32921 35.3953 1.95792L35.3949 1.95843Z" fill="#65096F"/>
</svg>
