<svg width="50" height="57" viewBox="0 0 50 57" fill="none" xmlns="http://www.w3.org/2000/svg">
<path d="M36.4503 1.32627L35.6387 0.148438L34.8272 1.32627C34.7774 1.39588 31.0251 6.84085 27.5801 12.9394C27.9569 13.6228 28.3226 14.3156 28.6889 15.0182C28.8275 15.2657 28.9562 15.5033 29.085 15.7508C34.8272 26.7396 37.6188 34.1846 37.6188 38.5208C37.6188 38.7981 37.6088 39.0754 37.5889 39.3522C37.579 39.8472 37.5398 40.3323 37.4801 40.8178C37.4602 41.0057 37.4309 41.1841 37.4011 41.372C44.2123 40.5107 49.4987 34.6796 49.4987 27.6308C49.4987 20.2947 36.9851 2.09869 36.4503 1.32649L36.4503 1.32627Z" fill="#73207C"/>
<path d="M35.3826 36.1348C35.313 35.7685 35.2335 35.3823 35.1351 34.9862C35.1053 34.8774 35.0755 34.7785 35.0556 34.6691C34.986 34.4216 34.9169 34.1741 34.8478 33.9167C34.7882 33.689 34.7186 33.4708 34.6495 33.2432C34.57 32.9758 34.4711 32.6886 34.3821 32.4018C34.2932 32.1245 34.1943 31.8273 34.0855 31.5306C34.0263 31.3433 33.9567 31.1455 33.8877 30.9472C33.7987 30.7196 33.7092 30.492 33.6203 30.2539C33.5407 30.0263 33.4524 29.7987 33.3629 29.5711C33.1844 29.1059 32.9861 28.6308 32.7883 28.1457C32.6894 27.8982 32.5806 27.6507 32.4712 27.4032C32.4314 27.3044 32.3916 27.2154 32.353 27.116C32.3331 27.0563 32.3032 26.9972 32.2834 26.9381C32.2143 26.7795 32.1447 26.621 32.0756 26.463C32.0265 26.3541 31.9767 26.2453 31.927 26.1359C31.6303 25.4531 31.3132 24.7498 30.9768 24.0272C30.9469 23.9582 30.9171 23.8886 30.8878 23.8295C30.6503 23.3245 30.4122 22.8201 30.1647 22.3053C30.1255 22.2163 30.0757 22.1169 30.0266 22.018C29.9774 21.9086 29.9177 21.7998 29.868 21.691C29.5608 21.0573 29.2443 20.4137 28.9078 19.7607C28.5708 19.068 28.2145 18.3647 27.8383 17.652C27.7493 17.4741 27.6598 17.3057 27.5709 17.1278C27.4913 16.9791 27.4029 16.8206 27.3234 16.662C27.0267 16.0974 26.74 15.5433 26.4428 14.9986C22.4927 7.61331 18.7106 1.44575 18.6614 1.37617L17.82 0L16.9786 1.37617C16.8698 1.55406 16.3847 2.34628 15.6323 3.60367C15.2461 4.26661 14.771 5.04892 14.2561 5.93002C13.9987 6.3753 13.7213 6.85041 13.4341 7.34544C13.2562 7.65316 13.0777 7.97966 12.87 8.31611C11.88 10.0585 10.7712 12.0485 9.63256 14.1671C9.29612 14.7909 8.94973 15.4345 8.61329 16.0781C8.23651 16.8107 7.8509 17.5432 7.45534 18.2957C7.01946 19.1769 6.56368 20.0674 6.12835 20.9585C5.93058 21.3547 5.74218 21.7508 5.5538 22.1364C5.53391 22.1861 5.50463 22.2353 5.49413 22.275C5.29636 22.6811 5.10851 23.0871 4.91958 23.4833C4.87041 23.5722 4.83063 23.6611 4.79085 23.7506C4.0583 25.3147 3.38541 26.8493 2.77111 28.3442C2.57334 28.8392 2.375 29.3243 2.19656 29.8093C1.92973 30.4927 1.68223 31.1656 1.46401 31.8092C1.17674 32.6407 0.929236 33.4328 0.721506 34.1953C0.711562 34.2152 0.701618 34.2351 0.701618 34.2549C0.622064 34.5721 0.543061 34.8787 0.474002 35.1759C0.404945 35.4626 0.34528 35.7399 0.286172 36.0073C0.276227 36.0471 0.266283 36.0869 0.266283 36.1162C0.216563 36.3537 0.177337 36.6012 0.147505 36.8288C0.127618 36.9178 0.118226 36.9968 0.107729 37.0863C0.0679519 37.3537 0.0386715 37.6205 0.0287277 37.868C0.00994454 38.0956 0 38.3133 0 38.521C0 48.3415 7.98901 56.341 17.82 56.341C20.9386 56.341 23.8788 55.5388 26.4427 54.1234C26.9085 53.8659 27.3637 53.5886 27.799 53.2919C28.6796 52.6981 29.5017 52.0252 30.2641 51.2827C31.9673 49.6192 33.3434 47.6093 34.2838 45.362C34.4821 44.867 34.67 44.3621 34.8285 43.8472C34.9865 43.3224 35.1252 42.7782 35.244 42.2335C35.2931 41.986 35.3428 41.7385 35.3727 41.491H35.3826C35.3926 41.4711 35.3926 41.4512 35.3926 41.4214C35.4417 41.1441 35.4815 40.8568 35.5113 40.5701C35.5605 40.2237 35.5909 39.8673 35.6102 39.511C35.6301 39.184 35.6401 38.8481 35.6401 38.521C35.6401 38.026 35.6003 37.4813 35.5113 36.8775C35.4721 36.6399 35.4323 36.3924 35.3826 36.135L35.3826 36.1348ZM16.6023 51.2818C16.4637 51.7071 16.0781 51.9646 15.6615 51.9646C15.5527 51.9646 15.4538 51.9546 15.3543 51.9248C11.5728 50.6973 8.50384 48.0737 6.70176 44.5396C4.91014 41.0055 4.59362 36.9859 5.82114 33.2044C5.98908 32.6895 6.54375 32.4027 7.06858 32.5707C7.58346 32.7386 7.87075 33.3032 7.70225 33.8181C5.50403 40.5702 9.21652 47.8461 15.968 50.0343C16.4835 50.2028 16.7702 50.7669 16.6023 51.2818L16.6023 51.2818Z" fill="#73207C"/>
</svg>
